<svg width="96" height="106" viewBox="0 0 96 106" fill="none" xmlns="http://www.w3.org/2000/svg">
<path d="M95.8431 46.4417C95.2937 42.0417 93.4551 38.5378 92.683 37.2238C93.2416 28.0692 91.4265 21.176 87.2862 16.7288C84.0585 13.2624 80.2879 12.2816 78.373 12.0048C75.4528 5.83163 70.4884 4.63734 67.471 4.9276C61.8215 -0.33403 56.5958 -0.459039 53.1519 0.399926C50.8808 0.967562 49.1028 2.03148 47.9997 2.83357C46.8972 2.0304 45.1181 0.967562 42.8475 0.399926C39.4036 -0.460649 34.1779 -0.335103 28.5284 4.9276C25.5078 4.63627 20.5455 5.83163 17.6264 12.0048C15.7115 12.2811 11.9409 13.2619 8.71319 16.7288C4.5718 21.176 2.75784 28.0692 3.31635 37.2238C2.5443 38.5367 0.706731 42.0417 0.156263 46.4417C-0.465561 51.4276 0.484076 58.4587 8.27968 64.1635C7.37618 69.4964 8.23139 78.6768 16.7486 83.191C16.395 85.1311 16.1606 88.4961 17.8925 91.3724C19.2541 93.6349 21.5038 95.1232 24.5866 95.8035C26.143 98.2055 31.5082 105.645 38.2034 105.645C38.2458 105.645 38.2893 105.645 38.3316 105.644C41.9209 105.592 45.1642 103.471 47.9992 99.3284C50.8352 103.47 54.0784 105.592 57.6667 105.644C64.4112 105.742 69.8456 98.2205 71.4123 95.8035C74.4951 95.1232 76.7452 93.6354 78.1064 91.3724C79.8388 88.4961 79.6033 85.1306 79.2502 83.191C87.7685 78.6768 88.6237 69.4964 87.7202 64.1635C95.5164 58.4587 96.4666 51.4281 95.8431 46.4417ZM84.6659 61.8312C84.022 62.2604 83.7173 63.048 83.9051 63.7992C84.0295 64.297 86.8296 76.0285 76.404 80.4961C75.5279 80.8717 75.0863 81.8551 75.3879 82.7586C75.4007 82.7978 76.6353 86.7181 74.9683 89.4849C74.0648 90.9867 72.385 91.9518 69.9787 92.3526C69.4422 92.4417 68.9732 92.7657 68.6986 93.2347C67.2666 95.6785 62.5318 101.983 57.7938 101.983C57.7675 101.983 57.7396 101.983 57.7123 101.983C54.8628 101.939 52.147 99.587 49.6409 94.9934C49.3195 94.4053 48.6339 94.0394 47.9632 94.0394C47.2926 94.0394 46.6766 94.4048 46.3553 94.9934C43.8503 99.587 41.1344 101.939 38.2839 101.983C33.5405 102.059 28.7382 95.693 27.2976 93.2347C27.0229 92.7657 26.5529 92.4417 26.0175 92.3526C23.6187 91.9524 21.9426 90.992 21.037 89.4994C19.3496 86.7176 20.5981 82.7924 20.6094 82.7581C20.9098 81.8546 20.4694 80.8711 19.5932 80.4956C9.22234 76.0511 11.972 64.2933 12.0932 63.7986C12.281 63.048 11.9763 62.2604 11.3325 61.8307C-2.32942 52.7227 6.33319 39.2663 6.70661 38.7014C6.93195 38.3634 7.03818 37.9599 7.00974 37.5549C6.4126 29.205 7.86978 23.0581 11.34 19.2827C14.6766 15.6531 18.7149 15.5598 18.8732 15.5576C19.6222 15.5576 20.295 15.1016 20.5734 14.4068C22.6229 9.28466 25.9161 8.55285 27.6287 8.55285C28.1797 8.55285 28.5681 8.62903 28.6963 8.65908C29.3208 8.81467 29.9802 8.63279 30.4352 8.17729C34.1618 4.45224 37.992 3.02135 41.8201 3.92056C44.7495 4.60891 46.6568 6.45399 46.6697 6.46687C47.013 6.81024 47.4793 7.00339 47.9643 7.00339H48.034C48.5196 7.00339 48.9853 6.81024 49.3286 6.46687C49.3469 6.44863 51.1893 4.66578 54.0398 3.95328C57.9129 2.9854 61.7909 4.40449 65.5631 8.17729C66.0079 8.62313 66.6673 8.80287 67.2848 8.66337C67.8315 8.53783 72.7155 7.63433 75.4249 14.4073C75.6996 15.0941 76.3734 15.549 77.1133 15.5582C77.2834 15.5608 81.3217 15.6531 84.6583 19.2832C88.128 23.0587 89.5846 29.2061 88.9886 37.5554C88.9601 37.9599 89.0664 38.3639 89.2917 38.7019C89.3153 38.7368 91.6256 42.2467 92.2072 46.8972C92.9653 52.9647 90.4281 57.9897 84.6659 61.8312Z" fill="white"/>
<path d="M78.7946 13.1481C78.4743 12.1883 77.435 11.6711 76.4779 11.9898C65.0892 15.7862 64.9578 25.3035 64.9578 25.7064C64.9578 26.7129 65.77 27.5247 66.776 27.5311C66.7808 27.5311 66.7851 27.5311 66.7889 27.5311C67.7895 27.5311 68.6066 26.7199 68.62 25.7188C68.6249 25.421 68.8223 18.4017 77.6357 15.4643C78.5955 15.1445 79.1138 14.108 78.7946 13.1481Z" fill="white"/>
<path d="M87.0684 62.2431C86.4551 61.4394 85.3075 61.2832 84.5017 61.897C81.5175 64.1708 78.8189 64.9809 76.4861 64.3087C72.3297 63.1117 70.2356 57.6371 70.2158 57.5813C69.8644 56.6343 68.8101 56.1498 67.8653 56.5018C66.9167 56.8516 66.4312 57.9053 66.7821 58.8539C66.891 59.149 69.5183 66.0969 75.4506 67.8218C76.3353 68.0793 77.2372 68.2075 78.1546 68.2075C80.885 68.2075 83.7564 67.0712 86.7223 64.8098C87.5265 64.1971 87.6811 63.0468 87.0684 62.2431Z" fill="white"/>
<path d="M56.1054 63.7708C55.3912 63.0556 54.2302 63.0556 53.5161 63.7708C52.8009 64.4859 52.8009 65.6453 53.5161 66.36C59.4623 72.3062 58.2289 78.0513 58.1656 78.3233C57.9274 79.3013 58.5234 80.288 59.5004 80.5326C59.6485 80.5691 59.7982 80.5874 59.9452 80.5874C60.7655 80.5874 61.5129 80.0315 61.7205 79.1994C61.8016 78.8791 63.5973 71.2627 56.1054 63.7708Z" fill="white"/>
<path d="M84.5177 46.6087C84.1733 45.6602 83.1233 45.1693 82.1737 45.511C81.8029 45.6435 73.0711 48.6969 68.4334 42.5242C66.0245 39.3185 64.9895 36.5732 64.1574 34.3675C63.1364 31.6619 62.1733 29.1054 58.9719 28.8414C57.973 28.7572 57.0791 29.5078 56.997 30.5159C56.9139 31.5229 57.6634 32.4076 58.6715 32.4908C59.4382 32.553 59.7263 32.9978 60.7301 35.6589C61.5966 37.9547 62.7823 41.0987 65.5051 44.7229C68.6963 48.9699 73.1484 50.0365 76.8192 50.0365C80.3731 50.0365 83.1941 49.0359 83.4264 48.9522C84.375 48.6062 84.8621 47.5578 84.5177 46.6087Z" fill="white"/>
<path d="M47.9654 3.34021C46.9546 3.34021 46.1343 4.16055 46.1343 5.17135V95.8681C46.1343 96.8789 46.9546 97.6992 47.9654 97.6992C48.9762 97.6992 49.7966 96.8799 49.7966 95.8686V5.17135C49.7966 4.16055 48.9762 3.34021 47.9654 3.34021Z" fill="white"/>
<path d="M61.3552 19.117C61.3408 18.1062 60.5392 17.2858 59.4973 17.3121C58.4854 17.3266 57.678 18.1593 57.6924 19.1701C57.694 19.2844 57.7938 30.7025 52.0842 37.9439C51.4581 38.7385 51.5933 39.8899 52.3884 40.516C52.7243 40.7816 53.1235 40.9098 53.521 40.9098C54.0624 40.9098 54.5989 40.671 54.9594 40.2123C61.4658 31.9618 61.3622 19.6379 61.3552 19.117Z" fill="white"/>
<path d="M65.0782 75.2126C57.0057 75.2126 53.2297 86.2617 53.073 86.7328C52.7533 87.6915 53.271 88.7259 54.2298 89.0473C54.4219 89.1122 54.6182 89.1423 54.8103 89.1423C55.5759 89.1423 56.29 88.6589 56.5475 87.8922C57.3909 85.384 60.5682 78.8749 65.0787 78.8749C66.0895 78.8749 66.9098 78.0546 66.9098 77.0438C66.9098 76.033 66.089 75.2126 65.0782 75.2126Z" fill="white"/>
<path d="M67.1409 4.64283C66.3313 4.03925 65.1832 4.20718 64.5791 5.01893L60.1855 10.9222C59.5819 11.7324 59.7504 12.88 60.5616 13.4841C60.8894 13.7293 61.272 13.8468 61.6529 13.8468C62.2125 13.8468 62.7646 13.5925 63.1235 13.108L67.517 7.20471C68.1206 6.39456 67.9522 5.24749 67.1409 4.64283Z" fill="white"/>
<path d="M29.65 16.4788C25.6111 16.4788 22.325 19.7649 22.325 23.8038C22.325 27.8427 25.6111 31.1289 29.65 31.1289C33.6889 31.1289 36.9751 27.8427 36.9751 23.8038C36.9751 19.7649 33.6889 16.4788 29.65 16.4788ZM29.65 27.4666C27.63 27.4666 25.9872 25.8238 25.9872 23.8038C25.9872 21.7838 27.63 20.141 29.65 20.141C31.67 20.141 33.3128 21.7838 33.3128 23.8038C33.3123 25.8238 31.6695 27.4666 29.65 27.4666Z" fill="white"/>
<path d="M16.8304 40.2858C12.7915 40.2858 9.50537 43.5719 9.50537 47.6108C9.50537 51.6497 12.7915 54.9359 16.8304 54.9359C20.8694 54.9359 24.1555 51.6497 24.1555 47.6108C24.1561 43.5719 20.8694 40.2858 16.8304 40.2858ZM16.8304 51.2737C14.8105 51.2737 13.1676 49.6308 13.1676 47.6108C13.1676 45.5909 14.8105 43.948 16.8304 43.948C18.8504 43.948 20.4933 45.5909 20.4933 47.6108C20.4933 49.6308 18.8504 51.2737 16.8304 51.2737Z" fill="white"/>
<path d="M35.1434 56.7676C31.1045 56.7676 27.8184 60.0537 27.8184 64.0927C27.8184 68.1316 31.1045 71.4177 35.1434 71.4177C39.1823 71.4177 42.4685 68.1316 42.4685 64.0927C42.4685 60.0537 39.1823 56.7676 35.1434 56.7676ZM35.1434 67.7555C33.1234 67.7555 31.4806 66.1126 31.4806 64.0927C31.4806 62.0727 33.1234 60.4298 35.1434 60.4298C37.1634 60.4298 38.8062 62.0727 38.8062 64.0927C38.8062 66.1126 37.1629 67.7555 35.1434 67.7555Z" fill="white"/>
<path d="M35.1434 76.9121C31.1045 76.9121 27.8184 80.1983 27.8184 84.2372C27.8184 88.2761 31.1045 91.5623 35.1434 91.5623C39.1823 91.5623 42.4685 88.2761 42.4685 84.2372C42.4685 80.1983 39.1823 76.9121 35.1434 76.9121ZM35.1434 87.9C33.1234 87.9 31.4806 86.2572 31.4806 84.2372C31.4806 82.2172 33.1234 80.5744 35.1434 80.5744C37.1634 80.5744 38.8062 82.2172 38.8062 84.2372C38.8057 86.2572 37.1629 87.9 35.1434 87.9Z" fill="white"/>
<path d="M29.6495 27.4668C28.6387 27.4668 27.8184 28.2871 27.8184 29.2979V47.6109C27.8184 48.6217 28.6387 49.442 29.6495 49.442C30.6614 49.442 31.4806 48.6228 31.4806 47.6109V29.2979C31.4806 28.2871 30.6603 27.4668 29.6495 27.4668Z" fill="white"/>
<path d="M35.1434 45.78H22.3238C21.313 45.78 20.4927 46.6004 20.4927 47.6112C20.4927 48.622 21.313 49.4423 22.3238 49.4423H35.1428C36.1547 49.4423 36.974 48.622 36.974 47.6112C36.9745 46.6004 36.1542 45.78 35.1434 45.78Z" fill="white"/>
<path d="M35.1436 45.78C34.1328 45.78 33.3125 46.6004 33.3125 47.6112V58.599C33.3125 59.6098 34.1328 60.4302 35.1436 60.4302C36.1555 60.4302 36.9748 59.6109 36.9748 58.599V47.6112C36.9748 46.6004 36.1544 45.78 35.1436 45.78Z" fill="white"/>
<path d="M35.1436 67.7556C34.1328 67.7556 33.3125 68.576 33.3125 69.5868V78.7435C33.3125 79.7543 34.1328 80.5746 35.1436 80.5746C36.1555 80.5746 36.9748 79.7554 36.9748 78.7435V69.5868C36.9748 68.576 36.1544 67.7556 35.1436 67.7556Z" fill="white"/>
</svg>
