<svg width="90" height="98" viewBox="0 0 90 98" fill="none" xmlns="http://www.w3.org/2000/svg">
<path d="M88.9076 43.081C88.3979 38.9995 86.6923 35.749 85.9762 34.5302C86.4942 26.038 84.8106 19.6437 80.9699 15.5183C77.9757 12.3027 74.4779 11.3929 72.7017 11.1361C69.9927 5.40963 65.3876 4.30177 62.5885 4.57102C57.3478 -0.309858 52.5003 -0.425821 49.3056 0.370986C47.1989 0.897545 45.5495 1.88447 44.5263 2.62852C43.5035 1.88348 41.8531 0.897545 39.7469 0.370986C36.5522 -0.427314 31.7047 -0.310854 26.464 4.57102C23.662 4.30077 19.0588 5.40963 16.3508 11.1361C14.5746 11.3924 11.0768 12.3022 8.08267 15.5183C4.24097 19.6437 2.55827 26.038 3.07637 34.5302C2.36019 35.748 0.655589 38.9995 0.144956 43.081C-0.431871 47.7061 0.449046 54.2284 7.68053 59.5203C6.84241 64.4674 7.63574 72.9834 15.5366 77.171C15.2086 78.9707 14.9911 82.0922 16.5977 84.7604C17.8608 86.8591 19.9477 88.2397 22.8074 88.8708C24.2512 91.099 29.2282 98 35.4389 98C35.4782 98 35.5185 98 35.5578 97.999C38.8874 97.9512 41.896 95.9833 44.5258 92.1407C47.1566 95.9824 50.1651 97.9512 53.4937 97.999C59.7502 98.0906 64.7913 91.1129 66.2446 88.8708C69.1043 88.2397 71.1917 86.8596 72.4543 84.7604C74.0614 82.0922 73.8429 78.9702 73.5154 77.171C81.4173 72.9834 82.2106 64.4674 81.3725 59.5203C88.6045 54.2284 89.4859 47.7066 88.9076 43.081ZM78.5391 57.3569C77.9419 57.755 77.6592 58.4856 77.8334 59.1824C77.9489 59.6443 80.5463 70.5268 70.8751 74.6711C70.0624 75.0195 69.6528 75.9318 69.9325 76.7699C69.9445 76.8062 71.0896 80.4429 69.5433 83.0095C68.7052 84.4025 67.1469 85.2979 64.9148 85.6696C64.4171 85.7523 63.9821 86.0529 63.7273 86.4879C62.3989 88.7548 58.0068 94.6027 53.6117 94.6027C53.5873 94.6027 53.5614 94.6027 53.536 94.6027C50.8928 94.5619 48.3734 92.3805 46.0487 88.1193C45.7506 87.5738 45.1145 87.2344 44.4924 87.2344C43.8703 87.2344 43.2989 87.5733 43.0008 88.1193C40.6771 92.3805 38.1578 94.5619 35.5135 94.6027C31.1134 94.6734 26.6586 88.7683 25.3223 86.4879C25.0674 86.0529 24.6315 85.7523 24.1348 85.6696C21.9096 85.2984 20.3548 84.4075 19.5147 83.0229C17.9494 80.4424 19.1076 76.8013 19.118 76.7694C19.3967 75.9313 18.9881 75.019 18.1754 74.6706C8.55498 70.5477 11.1057 59.6408 11.2181 59.1819C11.3923 58.4856 11.1096 57.755 10.5124 57.3564C-2.16086 48.9075 5.8749 36.4249 6.22129 35.9008C6.43033 35.5873 6.52887 35.213 6.50249 34.8372C5.94856 27.0916 7.30029 21.3896 10.5194 17.8873C13.6145 14.5204 17.3607 14.4338 17.5075 14.4318C18.2023 14.4318 18.8264 14.0088 19.0847 13.3643C20.9859 8.61279 24.0407 7.93393 25.6293 7.93393C26.1405 7.93393 26.5008 8.00461 26.6198 8.03248C27.1991 8.17681 27.8107 8.00809 28.2328 7.58555C31.6898 4.13006 35.2428 2.80272 38.7938 3.63685C41.5112 4.27539 43.2805 5.98696 43.2925 5.9989C43.611 6.31743 44.0435 6.4966 44.4934 6.4966H44.5581C45.0085 6.4966 45.4405 6.31743 45.759 5.9989C45.776 5.98198 47.485 4.32815 50.1293 3.66721C53.7221 2.76937 57.3195 4.08577 60.8187 7.58555C61.2313 7.99913 61.843 8.16586 62.4158 8.03646C62.923 7.92 67.4535 7.08188 69.9669 13.3648C70.2217 14.0018 70.8468 14.4239 71.5331 14.4323C71.6909 14.4348 75.437 14.5204 78.5322 17.8878C81.7507 21.3901 83.102 27.0926 82.549 34.8377C82.5227 35.213 82.6212 35.5878 82.8302 35.9013C82.8521 35.9337 84.9952 39.1896 85.5347 43.5036C86.2379 49.132 83.8843 53.7934 78.5391 57.3569Z" fill="white"/>
<path d="M73.0928 12.1968C72.7957 11.3064 71.8317 10.8267 70.9438 11.1223C60.3793 14.644 60.2573 23.4725 60.2573 23.8463C60.2573 24.78 61.0108 25.533 61.944 25.539C61.9485 25.539 61.9525 25.539 61.9559 25.539C62.8841 25.539 63.6421 24.7865 63.6546 23.8578C63.6591 23.5815 63.8422 17.0702 72.0178 14.3453C72.9082 14.0487 73.389 13.0872 73.0928 12.1968Z" fill="white"/>
<path d="M80.7679 57.739C80.199 56.9934 79.1345 56.8486 78.3869 57.418C75.6188 59.5272 73.1154 60.2787 70.9514 59.6551C67.0958 58.5447 65.1533 53.4663 65.1348 53.4145C64.8088 52.5361 63.8309 52.0867 62.9544 52.4132C62.0745 52.7377 61.6241 53.7151 61.9496 54.595C62.0506 54.8688 64.4878 61.3139 69.9908 62.914C70.8115 63.1529 71.6482 63.2718 72.4992 63.2718C75.032 63.2718 77.6956 62.2177 80.4469 60.1199C81.1929 59.5516 81.3363 58.4845 80.7679 57.739Z" fill="white"/>
<path d="M52.0454 59.156C51.383 58.4926 50.306 58.4926 49.6436 59.156C48.9801 59.8194 48.9801 60.895 49.6436 61.5579C55.1595 67.0738 54.0153 72.4031 53.9566 72.6555C53.7356 73.5627 54.2885 74.478 55.1948 74.7049C55.3322 74.7388 55.4711 74.7557 55.6074 74.7557C56.3684 74.7557 57.0617 74.2401 57.2543 73.4682C57.3294 73.1711 58.9952 66.1058 52.0454 59.156Z" fill="white"/>
<path d="M78.4017 43.236C78.0822 42.3561 77.1082 41.9007 76.2273 42.2177C75.8834 42.3407 67.7834 45.173 63.4814 39.4471C61.2467 36.4734 60.2867 33.9267 59.5148 31.8806C58.5677 29.3708 57.6743 26.9993 54.7046 26.7544C53.7778 26.6763 52.9487 27.3725 52.8725 28.3077C52.7954 29.2419 53.4907 30.0626 54.4258 30.1397C55.1371 30.1974 55.4043 30.61 56.3355 33.0786C57.1393 35.2082 58.2392 38.1247 60.765 41.4866C63.7252 45.4264 67.8551 46.4158 71.2603 46.4158C74.557 46.4158 77.1739 45.4876 77.3894 45.4099C78.2693 45.0889 78.7212 44.1164 78.4017 43.236Z" fill="white"/>
<path d="M44.4943 3.09851C43.5566 3.09851 42.7957 3.85948 42.7957 4.79714V88.9307C42.7957 89.8684 43.5566 90.6293 44.4943 90.6293C45.4319 90.6293 46.1929 89.8694 46.1929 88.9312V4.79714C46.1929 3.85948 45.4319 3.09851 44.4943 3.09851Z" fill="white"/>
<path d="M56.9154 17.7336C56.902 16.796 56.1584 16.035 55.1919 16.0594C54.2532 16.0728 53.5042 16.8453 53.5177 17.7829C53.5191 17.8889 53.6117 28.4808 48.3153 35.1982C47.7345 35.9353 47.8599 37.0033 48.5975 37.5841C48.909 37.8305 49.2793 37.9495 49.6481 37.9495C50.1503 37.9495 50.648 37.728 50.9824 37.3025C57.0179 29.6489 56.9219 18.2169 56.9154 17.7336Z" fill="white"/>
<path d="M60.3689 69.77C52.8806 69.77 49.3778 80.0195 49.2325 80.4565C48.9358 81.3459 49.4161 82.3054 50.3055 82.6035C50.4837 82.6638 50.6658 82.6916 50.844 82.6916C51.5542 82.6916 52.2166 82.2432 52.4555 81.532C53.2379 79.2053 56.1852 73.1673 60.3693 73.1673C61.307 73.1673 62.068 72.4063 62.068 71.4687C62.068 70.531 61.3065 69.77 60.3689 69.77Z" fill="white"/>
<path d="M62.2823 4.30693C61.5313 3.74703 60.4662 3.9028 59.9058 4.65581L55.8302 10.1319C55.2703 10.8835 55.4266 11.948 56.1791 12.5084C56.4832 12.7359 56.8381 12.8449 57.1914 12.8449C57.7105 12.8449 58.2226 12.609 58.5556 12.1595L62.6312 6.68342C63.1911 5.9319 63.0348 4.86783 62.2823 4.30693Z" fill="white"/>
<path d="M27.5045 15.2863C23.7578 15.2863 20.7095 18.3346 20.7095 22.0813C20.7095 25.8279 23.7578 28.8763 27.5045 28.8763C31.2511 28.8763 34.2995 25.8279 34.2995 22.0813C34.2995 18.3346 31.2511 15.2863 27.5045 15.2863ZM27.5045 25.479C25.6307 25.479 24.1067 23.9551 24.1067 22.0813C24.1067 20.2074 25.6307 18.6835 27.5045 18.6835C29.3783 18.6835 30.9022 20.2074 30.9022 22.0813C30.9017 23.9551 29.3778 25.479 27.5045 25.479Z" fill="white"/>
<path d="M15.6126 37.3705C11.866 37.3705 8.81763 40.4189 8.81763 44.1655C8.81763 47.9121 11.866 50.9605 15.6126 50.9605C19.3593 50.9605 22.4076 47.9121 22.4076 44.1655C22.4081 40.4189 19.3593 37.3705 15.6126 37.3705ZM15.6126 47.5632C13.7388 47.5632 12.2149 46.0393 12.2149 44.1655C12.2149 42.2917 13.7388 40.7677 15.6126 40.7677C17.4864 40.7677 19.0104 42.2917 19.0104 44.1655C19.0104 46.0393 17.4864 47.5632 15.6126 47.5632Z" fill="white"/>
<path d="M32.6002 52.6597C28.8535 52.6597 25.8052 55.708 25.8052 59.4547C25.8052 63.2013 28.8535 66.2497 32.6002 66.2497C36.3468 66.2497 39.3952 63.2013 39.3952 59.4547C39.3952 55.708 36.3468 52.6597 32.6002 52.6597ZM32.6002 62.8524C30.7264 62.8524 29.2024 61.3285 29.2024 59.4547C29.2024 57.5809 30.7264 56.0569 32.6002 56.0569C34.474 56.0569 35.9979 57.5809 35.9979 59.4547C35.9979 61.3285 34.4735 62.8524 32.6002 62.8524Z" fill="white"/>
<path d="M32.6002 71.3464C28.8535 71.3464 25.8052 74.3948 25.8052 78.1414C25.8052 81.8881 28.8535 84.9364 32.6002 84.9364C36.3468 84.9364 39.3952 81.8881 39.3952 78.1414C39.3952 74.3948 36.3468 71.3464 32.6002 71.3464ZM32.6002 81.5392C30.7264 81.5392 29.2024 80.0153 29.2024 78.1414C29.2024 76.2676 30.7264 74.7437 32.6002 74.7437C34.474 74.7437 35.9979 76.2676 35.9979 78.1414C35.9974 80.0153 34.4735 81.5392 32.6002 81.5392Z" fill="white"/>
<path d="M27.5038 25.4792C26.5661 25.4792 25.8052 26.2402 25.8052 27.1779V44.1656C25.8052 45.1033 26.5661 45.8643 27.5038 45.8643C28.4425 45.8643 29.2024 45.1043 29.2024 44.1656V27.1779C29.2024 26.2402 28.4415 25.4792 27.5038 25.4792Z" fill="white"/>
<path d="M32.6003 42.4673H20.7084C19.7707 42.4673 19.0098 43.2283 19.0098 44.1659C19.0098 45.1036 19.7707 45.8645 20.7084 45.8645H32.5998C33.5384 45.8645 34.2984 45.1036 34.2984 44.1659C34.2989 43.2283 33.5379 42.4673 32.6003 42.4673Z" fill="white"/>
<path d="M32.6005 42.4673C31.6628 42.4673 30.9019 43.2283 30.9019 44.1659V54.3587C30.9019 55.2963 31.6628 56.0573 32.6005 56.0573C33.5391 56.0573 34.2991 55.2973 34.2991 54.3587V44.1659C34.2991 43.2283 33.5381 42.4673 32.6005 42.4673Z" fill="white"/>
<path d="M32.6005 62.8525C31.6628 62.8525 30.9019 63.6135 30.9019 64.5512V73.0453C30.9019 73.983 31.6628 74.7439 32.6005 74.7439C33.5391 74.7439 34.2991 73.984 34.2991 73.0453V64.5512C34.2991 63.6135 33.5381 62.8525 32.6005 62.8525Z" fill="white"/>
</svg>
