<svg width="32" height="32" viewBox="0 0 32 32" fill="none" xmlns="http://www.w3.org/2000/svg">
<path d="M16 0C7.17785 0 0 7.17723 0 16C0 24.8228 7.17785 32 16 32C24.8222 32 32 24.8228 32 16C32 7.17723 24.8222 0 16 0ZM24.92 10.664L15.0738 21.7409C14.8314 22.0135 14.4935 22.1538 14.1532 22.1538C13.8831 22.1538 13.6117 22.0652 13.3846 21.8843L7.23077 16.9612C6.70031 16.5372 6.61415 15.7625 7.03877 15.2314C7.46277 14.7003 8.23815 14.6142 8.76862 15.0388L14.0098 19.2314L23.08 9.02769C23.5305 8.51939 24.3095 8.47385 24.8172 8.92554C25.3255 9.37785 25.3717 10.1557 24.92 10.664Z" fill="#19947E"/>
</svg>
