<svg width="98" height="98" viewBox="0 0 98 98" fill="none" xmlns="http://www.w3.org/2000/svg">
<path d="M94.6503 30.4097H79.3154L88.4723 20.2159C88.9807 19.6491 89.2386 18.9194 89.1982 18.1597C89.1571 17.3993 88.8229 16.701 88.2569 16.1926L84.3189 12.6561C83.1503 11.6063 81.3454 11.7028 80.2964 12.8714L64.542 30.4097H37.123C36.3305 30.4097 35.6875 31.052 35.6875 31.8453C35.6875 32.6386 36.3305 33.2808 37.123 33.2808H61.9632L55.5586 40.4107C55.0502 40.9767 54.793 41.7072 54.8334 42.4668C54.8386 42.5566 54.8476 42.6448 54.8603 42.733L52.6591 48.6853C52.3324 49.5691 52.5739 50.547 53.2752 51.1766C53.7051 51.5631 54.2479 51.7635 54.7975 51.7635C55.1429 51.7635 55.4913 51.6842 55.8173 51.5227L61.5049 48.695C61.5408 48.6965 61.5759 48.7003 61.6126 48.7003C61.6642 48.7003 61.7158 48.6988 61.7681 48.6958C62.5277 48.6546 63.2261 48.3212 63.7352 47.7544L76.7367 33.2808H94.6503C94.9143 33.2808 95.1289 33.4954 95.1289 33.7593V89.0683C95.1289 89.3322 94.9143 89.5468 94.6503 89.5468H84.2067C83.4142 89.5468 82.7712 90.1891 82.7712 90.9823C82.7712 91.7749 83.4142 92.4179 84.2067 92.4179H94.6503C96.4971 92.4179 97.9999 90.9151 97.9999 89.0683V33.7593C97.9999 31.9118 96.4971 30.4097 94.6503 30.4097ZM86.3219 18.3138L84.6165 20.2114L80.7121 16.7048L82.4175 14.8064L86.3219 18.3138ZM78.7935 18.8409L79.678 19.6349L58.5942 43.1069L57.7097 42.3121L78.7935 18.8409ZM56.9142 45.4568L58.5725 46.9469L55.8659 48.292L56.9142 45.4568ZM61.6141 45.8194L60.7296 45.0254L81.8142 21.5535L82.6979 22.3475L61.6141 45.8194Z" fill="white"/>
<path d="M77.9554 89.5467H13.388C7.58896 89.5467 2.87109 84.8289 2.87109 79.0298V78.271C2.87109 72.4719 7.58821 67.7548 13.3872 67.7548H16.3376C18.1851 67.7548 19.6872 66.252 19.6872 64.4052V33.2808H30.8717C31.665 33.2808 32.3073 32.6378 32.3073 31.8452C32.3073 31.0519 31.665 30.4097 30.8717 30.4097H19.6872V25.4249C19.6872 24.6323 19.0449 23.9893 18.2516 23.9893C17.4591 23.9893 16.8161 24.6323 16.8161 25.4249V64.4052C16.8161 64.6691 16.6015 64.8837 16.3376 64.8837H13.3872C9.12694 64.8837 5.32423 66.8845 2.87109 69.9956V19.1302C2.87109 13.3311 7.58896 8.61328 13.388 8.61328H16.3376C16.6015 8.61328 16.8161 8.82787 16.8161 9.0918V19.1735C16.8161 19.9668 17.4591 20.6091 18.2516 20.6091C19.0449 20.6091 19.6872 19.9668 19.6872 19.1735V9.0918C19.6872 7.24503 18.1851 5.74219 16.3376 5.74219H13.388C6.00612 5.74219 0 11.7476 0 19.1302V79.0298C0 86.4117 6.00612 92.4178 13.388 92.4178H77.9554C78.7487 92.4178 79.391 91.7748 79.391 90.9823C79.391 90.189 78.7487 89.5467 77.9554 89.5467Z" fill="white"/>
<path d="M76.5997 45.5652C70.7356 45.5652 65.9273 50.1619 65.5834 55.9407H58.9746C58.1821 55.9407 57.5391 56.5838 57.5391 57.3763V73.7744C57.5391 74.5677 58.1821 75.21 58.9746 75.21H75.3727C76.166 75.21 76.8083 74.5677 76.8083 73.7744V67.6375C82.7994 67.5253 87.6384 62.6205 87.6384 56.6039C87.6384 50.5171 82.6866 45.5652 76.5997 45.5652V45.5652ZM73.9379 64.3237C71.4235 63.4542 69.4631 61.3898 68.7386 58.8118H73.9379V64.3237ZM60.4102 72.3389V58.8118H65.7837C66.6331 62.9779 69.8362 66.2961 73.9379 67.316V72.3389H60.4102ZM76.809 64.7664V57.3763C76.809 56.5838 76.166 55.9407 75.3735 55.9407H68.4619C68.8006 51.7463 72.32 48.4363 76.6004 48.4363C81.1037 48.4363 84.7681 52.0999 84.7681 56.6039C84.7673 61.0377 81.2159 64.655 76.809 64.7664Z" fill="white"/>
<path d="M81.9331 68.634C81.1398 68.634 80.4976 69.2763 80.4976 70.0696C80.4976 70.8621 81.1398 71.5051 81.9331 71.5051H85.1264C85.9197 71.5051 86.562 70.8621 86.562 70.0696C86.562 69.2763 85.9197 68.634 85.1264 68.634H81.9331Z" fill="white"/>
<path d="M86.562 73.7744C86.562 72.9819 85.9197 72.3389 85.1264 72.3389H81.9331C81.1398 72.3389 80.4976 72.9819 80.4976 73.7744C80.4976 74.5677 81.1398 75.21 81.9331 75.21H85.1264C85.9197 75.21 86.562 74.5677 86.562 73.7744V73.7744Z" fill="white"/>
<path d="M26.2227 44.9932H28.5195C29.3121 44.9932 29.9551 44.3509 29.9551 43.5576C29.9551 42.7651 29.3121 42.1221 28.5195 42.1221H26.2227C25.4301 42.1221 24.7871 42.7651 24.7871 43.5576C24.7871 44.3509 25.4301 44.9932 26.2227 44.9932Z" fill="white"/>
<path d="M26.2227 49.1758H37.304C38.0973 49.1758 38.7396 48.5328 38.7396 47.7402C38.7396 46.9469 38.0973 46.3047 37.304 46.3047H26.2227C25.4301 46.3047 24.7871 46.9469 24.7871 47.7402C24.7871 48.5328 25.4301 49.1758 26.2227 49.1758Z" fill="white"/>
<path d="M35.0073 44.9932H37.3042C38.0975 44.9932 38.7397 44.3509 38.7397 43.5576C38.7397 42.7651 38.0975 42.1221 37.3042 42.1221H35.0073C34.2148 42.1221 33.5718 42.7651 33.5718 43.5576C33.5718 44.3509 34.2148 44.9932 35.0073 44.9932Z" fill="white"/>
<path d="M46.0884 42.1221H43.7915C42.999 42.1221 42.356 42.7651 42.356 43.5576C42.356 44.3509 42.999 44.9932 43.7915 44.9932H46.0884C46.8817 44.9932 47.5239 44.3509 47.5239 43.5576C47.5239 42.7651 46.8817 42.1221 46.0884 42.1221Z" fill="white"/>
<path d="M26.2227 53.3269H37.304C38.0973 53.3269 38.7396 52.6839 38.7396 51.8914C38.7396 51.0981 38.0973 50.4558 37.304 50.4558H26.2227C25.4301 50.4558 24.7871 51.0981 24.7871 51.8914C24.7871 52.6839 25.4301 53.3269 26.2227 53.3269Z" fill="white"/>
<path d="M24.7871 56.0417C24.7871 56.835 25.4301 57.4773 26.2227 57.4773H43.7917C44.5849 57.4773 45.2272 56.835 45.2272 56.0417C45.2272 55.2492 44.5849 54.6062 43.7917 54.6062H26.2227C25.4301 54.6062 24.7871 55.2492 24.7871 56.0417Z" fill="white"/>
<path d="M47.5241 60.1929C47.5241 59.4003 46.8818 58.7573 46.0885 58.7573H26.2227C25.4301 58.7573 24.7871 59.4003 24.7871 60.1929C24.7871 60.9862 25.4301 61.6284 26.2227 61.6284H46.0885C46.8818 61.6284 47.5241 60.9862 47.5241 60.1929Z" fill="white"/>
<path d="M31.6142 66.8809C31.6142 66.0876 30.9712 65.4453 30.1786 65.4453H26.2227C25.4301 65.4453 24.7871 66.0876 24.7871 66.8809V70.8361C24.7871 71.6294 25.4301 72.2716 26.2227 72.2716H30.1786C30.9712 72.2716 31.6142 71.6294 31.6142 70.8361V66.8809ZM28.7431 69.4013H27.6582V68.3164H28.7431V69.4013Z" fill="white"/>
<path d="M41.1054 66.8809C41.1054 66.0876 40.4624 65.4453 39.6698 65.4453H35.7139C34.9213 65.4453 34.2783 66.0876 34.2783 66.8809V70.8361C34.2783 71.6294 34.9213 72.2716 35.7139 72.2716H39.6698C40.4624 72.2716 41.1054 71.6294 41.1054 70.8361V66.8809ZM38.2343 69.4013H37.1494V68.3164H38.2343V69.4013Z" fill="white"/>
<path d="M50.5971 66.8809C50.5971 66.0876 49.9541 65.4453 49.1615 65.4453H45.2056C44.4123 65.4453 43.77 66.0876 43.77 66.8809V70.8361C43.77 71.6294 44.4123 72.2716 45.2056 72.2716H49.1615C49.9541 72.2716 50.5971 71.6294 50.5971 70.8361V66.8809ZM47.726 69.4013H46.6411V68.3164H47.726V69.4013Z" fill="white"/>
<path d="M30.1786 75.5261H26.2227C25.4301 75.5261 24.7871 76.1684 24.7871 76.9617V80.9169C24.7871 81.7102 25.4301 82.3524 26.2227 82.3524H30.1786C30.9712 82.3524 31.6142 81.7102 31.6142 80.9169V76.9617C31.6142 76.1684 30.9712 75.5261 30.1786 75.5261ZM28.7431 79.4814H27.6582V78.3965H28.7431V79.4814Z" fill="white"/>
<path d="M39.6698 75.5261H35.7139C34.9213 75.5261 34.2783 76.1684 34.2783 76.9617V80.9169C34.2783 81.7102 34.9213 82.3524 35.7139 82.3524H39.6698C40.4624 82.3524 41.1054 81.7102 41.1054 80.9169V76.9617C41.1054 76.1684 40.4624 75.5261 39.6698 75.5261ZM38.2343 79.4814H37.1494V78.3965H38.2343V79.4814Z" fill="white"/>
<path d="M45.2056 82.3525H49.1615C49.9541 82.3525 50.5971 81.7102 50.5971 80.9169V76.9609C50.5971 76.1684 49.9541 75.5254 49.1615 75.5254H45.2056C44.4123 75.5254 43.77 76.1684 43.77 76.9609V80.9169C43.77 81.7102 44.4123 82.3525 45.2056 82.3525ZM46.6411 78.3972H47.726V79.4814H46.6411V78.3972Z" fill="white"/>
</svg>
