<svg xmlns="http://www.w3.org/2000/svg" xmlns:xlink="http://www.w3.org/1999/xlink" width="384.862" height="303.753" viewBox="0 0 384.862 303.753">
  <defs>
    <linearGradient id="linear-gradient" x1="0.535" y1="0.494" x2="1.43" y2="0.167" gradientUnits="objectBoundingBox">
      <stop offset="0" stop-opacity="0"/>
      <stop offset="0.99"/>
    </linearGradient>
    <linearGradient id="linear-gradient-2" x1="0.175" y1="0.537" x2="1.84" y2="0.09" xlink:href="#linear-gradient"/>
    <linearGradient id="linear-gradient-3" x1="0.461" y1="0.407" x2="1.069" y2="1.407" xlink:href="#linear-gradient"/>
    <linearGradient id="linear-gradient-4" x1="0.247" y1="1.296" x2="0.923" y2="-0.829" xlink:href="#linear-gradient"/>
    <linearGradient id="linear-gradient-5" x1="-0.35" y1="0.5" x2="0.649" y2="0.5" xlink:href="#linear-gradient"/>
    <linearGradient id="linear-gradient-6" x1="-0.093" y1="1.035" x2="3.645" y2="-1.184" xlink:href="#linear-gradient"/>
    <linearGradient id="linear-gradient-7" x1="-0.002" y1="0.501" x2="1" y2="0.501" gradientUnits="objectBoundingBox">
      <stop offset="0" stop-color="#e5c5d5"/>
      <stop offset="0.42" stop-color="#ead4d1"/>
      <stop offset="1" stop-color="#f0e9cb"/>
    </linearGradient>
    <linearGradient id="linear-gradient-8" x1="0.5" y1="-1.586" x2="0.5" y2="5.991" xlink:href="#linear-gradient"/>
    <linearGradient id="linear-gradient-9" x1="0.622" y1="0.729" x2="0.08" y2="-0.287" xlink:href="#linear-gradient"/>
    <linearGradient id="linear-gradient-10" x1="0.611" y1="0.709" x2="0.071" y2="-0.301" xlink:href="#linear-gradient"/>
    <linearGradient id="linear-gradient-11" x1="0.247" y1="1.294" x2="0.923" y2="-0.819" xlink:href="#linear-gradient"/>
    <linearGradient id="linear-gradient-12" x1="1" y1="1" x2="0.643" y2="-0.04" gradientUnits="objectBoundingBox">
      <stop offset="0" stop-color="#1189e2" stop-opacity="0"/>
      <stop offset="1"/>
    </linearGradient>
    <linearGradient id="linear-gradient-13" x1="0.9" y1="0.298" x2="-1.651" y2="1.591" xlink:href="#linear-gradient"/>
    <linearGradient id="linear-gradient-14" x1="0.696" y1="1.168" x2="-0.303" y2="-0.876" xlink:href="#linear-gradient"/>
    <linearGradient id="linear-gradient-15" x1="0" y1="0.498" x2="1.001" y2="0.498" xlink:href="#linear-gradient-7"/>
    <linearGradient id="linear-gradient-16" x1="0.001" y1="0.499" x2="0.999" y2="0.499" xlink:href="#linear-gradient-7"/>
    <linearGradient id="linear-gradient-17" x1="0" y1="0.5" x2="1" y2="0.5" xlink:href="#linear-gradient-7"/>
    <linearGradient id="linear-gradient-18" x1="0.38" y1="0.438" x2="3.747" y2="1.512" xlink:href="#linear-gradient-7"/>
    <linearGradient id="linear-gradient-19" x1="1.548" y1="0.362" x2="-0.26" y2="0.591" xlink:href="#linear-gradient-7"/>
    <linearGradient id="linear-gradient-20" x1="0.402" y1="1.673" x2="0.719" y2="-2.9" xlink:href="#linear-gradient"/>
    <linearGradient id="linear-gradient-21" x1="0.556" y1="-0.043" x2="0.088" y2="3.024" xlink:href="#linear-gradient"/>
    <linearGradient id="linear-gradient-22" y1="0.5" x2="1" y2="0.5" gradientUnits="objectBoundingBox">
      <stop offset="0.02" stop-color="#fff" stop-opacity="0"/>
      <stop offset="0.32" stop-color="#fff" stop-opacity="0.388"/>
      <stop offset="0.68" stop-color="#fff" stop-opacity="0.678"/>
      <stop offset="1" stop-color="#fff"/>
    </linearGradient>
    <linearGradient id="linear-gradient-23" x1="-0.445" y1="0.871" x2="0.785" y2="0.403" xlink:href="#linear-gradient-22"/>
    <linearGradient id="linear-gradient-24" x1="-0.163" y1="0.621" x2="1.207" y2="0.348" xlink:href="#linear-gradient-22"/>
    <linearGradient id="linear-gradient-25" x1="0.029" y1="-0.55" x2="0.894" y2="1.378" xlink:href="#linear-gradient-22"/>
    <linearGradient id="linear-gradient-26" x1="-0.045" y1="-1.224" x2="0.82" y2="1.513" gradientUnits="objectBoundingBox">
      <stop offset="0.02" stop-color="#fff" stop-opacity="0"/>
      <stop offset="0.32" stop-color="#fff" stop-opacity="0.388"/>
      <stop offset="0.67" stop-color="#fff" stop-opacity="0.678"/>
      <stop offset="1" stop-color="#fff"/>
    </linearGradient>
    <linearGradient id="linear-gradient-27" x1="0.014" y1="-0.585" x2="0.879" y2="1.343" xlink:href="#linear-gradient-22"/>
    <linearGradient id="linear-gradient-28" x1="0.047" y1="-0.35" x2="0.912" y2="1.274" xlink:href="#linear-gradient-22"/>
    <linearGradient id="linear-gradient-29" x1="-0.002" y1="0.5" x2="1" y2="0.5" xlink:href="#linear-gradient-7"/>
    <linearGradient id="linear-gradient-30" x1="0.705" y1="0.415" x2="-0.116" y2="0.653" xlink:href="#linear-gradient"/>
    <linearGradient id="linear-gradient-31" x1="-184.636" y1="-21.208" x2="-184.752" y2="-20.411" xlink:href="#linear-gradient"/>
    <linearGradient id="linear-gradient-32" x1="0.341" y1="-0.084" x2="0.647" y2="1.175" xlink:href="#linear-gradient"/>
    <linearGradient id="linear-gradient-33" x1="-509.644" y1="100.153" x2="-509.727" y2="101.028" xlink:href="#linear-gradient"/>
    <linearGradient id="linear-gradient-34" x1="0.547" y1="0.202" x2="0.428" y2="0.971" xlink:href="#linear-gradient"/>
    <linearGradient id="linear-gradient-35" x1="0.545" y1="0.201" x2="0.427" y2="0.968" xlink:href="#linear-gradient"/>
    <linearGradient id="linear-gradient-36" x1="0" y1="0.5" x2="1" y2="0.5" xlink:href="#linear-gradient"/>
    <linearGradient id="linear-gradient-37" x1="0.485" y1="0.142" x2="0.548" y2="1.62" xlink:href="#linear-gradient"/>
  </defs>
  <g id="presentation_team" transform="translate(-0.001 -0.001)">
    <path id="Caminho_30" data-name="Caminho 30" d="M161.608,304.3c57.205,4.773,115.243-12.68,163.071-44.442,22.074-14.654,42.786-33.1,53.433-57.365s9.125-55.248-9.184-74.414c-13.7-14.343-34.518-20.393-47.635-35.325C310.974,80.986,306.815,65.2,299.857,51.165,274.473,0,161.213-20.745,115.141,32.511,70.8,83.809-32.015,110.211,9.612,219.521,29.636,272.071,110.209,300,161.608,304.3Z" transform="translate(0.11 -1.32)" fill="#68e1fd" opacity="0.18" style="isolation: isolate"/>
    <path id="Caminho_31" data-name="Caminho 31" d="M419.659,249.421l11.612,46.072a1.966,1.966,0,0,0,2.286,1.437h0a1.958,1.958,0,0,0,1.555-2.176c-1.21-8.915-6.462-47.668-6.722-48.181s-4.42.084-7.1.429a1.958,1.958,0,0,0-1.63,2.42Z" transform="translate(-66.931 -40.463)" fill="#68e1fd"/>
    <path id="Caminho_32" data-name="Caminho 32" d="M401.139,249.421l-11.612,46.072a1.966,1.966,0,0,1-2.286,1.437h0a1.958,1.958,0,0,1-1.554-2.176c1.21-8.915,6.462-47.668,6.722-48.181s4.42.084,7.1.429a1.958,1.958,0,0,1,1.63,2.42Z" transform="translate(-61.511 -40.463)" fill="#68e1fd"/>
    <path id="Caminho_33" data-name="Caminho 33" d="M419.659,249.421l11.612,46.072a1.966,1.966,0,0,0,2.286,1.437h0a1.958,1.958,0,0,0,1.555-2.176c-1.21-8.915-6.462-47.668-6.722-48.181s-4.42.084-7.1.429a1.958,1.958,0,0,0-1.63,2.42Z" transform="translate(-66.931 -40.463)" fill="url(#linear-gradient)"/>
    <path id="Caminho_34" data-name="Caminho 34" d="M401.139,249.421l-11.612,46.072a1.966,1.966,0,0,1-2.286,1.437h0a1.958,1.958,0,0,1-1.554-2.176c1.21-8.915,6.462-47.668,6.722-48.181s4.42.084,7.1.429a1.958,1.958,0,0,1,1.63,2.42Z" transform="translate(-61.511 -40.463)" fill="url(#linear-gradient-2)"/>
    <path id="Caminho_35" data-name="Caminho 35" d="M440.371,183.99c-.42,2.059-1.546,3.89-2.361,5.823-5.4,12.89,3.319,29.67-5.042,40.854-3.3,4.411-8.73,6.84-14.175,7.672s-11.008.252-16.486-.336l-7.974-.84a20.932,20.932,0,0,1-7.193-1.639c-2.218-1.1-4.092-3.218-4.2-5.689-.134-3.05,2.319-5.521,4.512-7.646A140.971,140.971,0,0,0,410.374,193.3c3.5-5.882,7.747-13.713,14.974-15.343C430.355,176.814,441.985,176.083,440.371,183.99Z" transform="translate(-61.074 -29.422)" fill="#68e1fd"/>
    <path id="Caminho_36" data-name="Caminho 36" d="M436.491,181.137c-.42,2.059-1.546,3.89-2.361,5.831-5.4,12.881,3.319,29.67-5.042,40.845-3.3,4.411-8.73,6.84-14.175,7.68s-11.008.244-16.486-.345l-7.974-.84a20.415,20.415,0,0,1-7.193-1.681c-2.218-1.134-4.092-3.21-4.2-5.68-.134-3.059,2.319-5.529,4.512-7.655a140.971,140.971,0,0,0,22.923-28.888c3.5-5.84,7.747-13.713,14.974-15.335C426.475,173.962,438.1,173.222,436.491,181.137Z" transform="translate(-60.455 -28.965)" fill="url(#linear-gradient-3)"/>
    <rect id="Retângulo_2" data-name="Retângulo 2" width="4.823" height="87.749" transform="translate(303.774 175.826)" fill="#68e1fd"/>
    <rect id="Retângulo_3" data-name="Retângulo 3" width="4.823" height="87.749" transform="translate(303.774 175.826)" fill="url(#linear-gradient-4)"/>
    <path id="Caminho_37" data-name="Caminho 37" d="M334.706,272.543A13.184,13.184,0,0,0,333.16,278c0,3.63,2.924,6.512,5.6,8.957,2.059-5.437,5.042-10.663,9.436-14.453,2.958-2.521,24.637-29.258,27.729-31.645s24.8-3.411,25.284-7.268c.546-4.353-18.041-3.773-21.452-6.672-4.285-3.647-24.628,2.042-27.241,5.512C346.47,240.453,338.781,263.426,334.706,272.543Z" transform="translate(-53.124 -37.167)" fill="#3e3e54"/>
    <path id="Caminho_38" data-name="Caminho 38" d="M334.835,272.624a13.36,13.36,0,0,0-1.555,5.453c.042,3.63,2.933,6.512,5.613,8.966,2.059-5.437,5.042-10.663,9.436-14.453,2.949-2.521,24.637-29.258,27.729-31.644s24.8-3.411,25.284-7.277c.546-4.353-18.041-3.764-21.452-6.663-4.285-3.647-24.628,2.033-27.241,5.5C346.59,240.535,338.927,263.508,334.835,272.624Z" transform="translate(-53.143 -37.181)" fill="url(#linear-gradient-5)"/>
    <rect id="Retângulo_4" data-name="Retângulo 4" width="218.058" height="130.309" rx="12.16" transform="translate(75.507 22.486)" fill="#68e1fd" opacity="0.48" style="isolation: isolate"/>
    <path id="Caminho_39" data-name="Caminho 39" d="M397.365,165.453a14.738,14.738,0,0,1,2.344-8.9,20.469,20.469,0,0,1,6.722-6.411,8.1,8.1,0,0,1,5.042-1.5c1.5.193,3.6-2.059,4.823-1.16,3.428,2.521,5.882,8.546,8.756,11.671a93.655,93.655,0,0,1,1.412,12.73l1.731,32.249c.286,5.319.437,11.142-2.773,15.4a182.078,182.078,0,0,1-23.41-10.428,5.193,5.193,0,0,1-1.874-1.4,5.294,5.294,0,0,1-.714-2.949q-.479-12.041,0-24.082C399.575,176.334,397.709,169.78,397.365,165.453Z" transform="translate(-63.375 -24.632)" fill="#68e1fd"/>
    <path id="Caminho_40" data-name="Caminho 40" d="M412.525,200.564c.277-1.681.84-3.361.521-5.042-.538-3.008-3.68-5.4-3.193-8.4a14.238,14.238,0,0,1,1.5-3.428,14.829,14.829,0,0,0,.84-6.546c-.076-3.042-.227-6.092-.454-9.125a11.764,11.764,0,0,0-3.411,4L402,182.221a17.955,17.955,0,0,0-1.781,3.361,18.25,18.25,0,0,0-.748,5.815l-.286,14.663c0,1.4,0,2.941.916,4a5.2,5.2,0,0,0,2.344,1.344c2.958,1,8.47,2.832,10.167-.471C414.1,208.076,411.954,203.958,412.525,200.564Z" transform="translate(-63.671 -27.947)" fill="url(#linear-gradient-6)"/>
    <path id="Caminho_41" data-name="Caminho 41" d="M396.2,214.836l-23.107,2.9c-3.907.5-7.882,1-11.512,2.521s-6.941,4.252-8.285,7.957c-3.176,8.756-2.454,17.931.437,26.779q3.538,10.789,7.067,21.578a18.1,18.1,0,0,0,2.706,5.823,6.152,6.152,0,0,0,5.613,2.521,2.823,2.823,0,0,0,1.975-1.21,3.975,3.975,0,0,0,.37-2.059l.05-38.9c0-2.235.2-4.848,2.067-6.075a6.863,6.863,0,0,1,4.2-.647l25.7,1.5c3.7.218,16.184-4.554,15.419-9.772C417.878,220.844,403.131,213.962,396.2,214.836Z" transform="translate(-56.008 -35.413)" fill="#234262"/>
    <path id="Caminho_42" data-name="Caminho 42" d="M366.666,295.446c-.613,1.176-.277,2.664-.79,3.9a6.008,6.008,0,0,1-1.966,2.227l-6,4.865c-1.05.84-2.227,2.075-1.807,3.361s1.991,1.58,3.3,1.638a70.393,70.393,0,0,0,10.041-.412c2.092-.2,4.378-.529,5.781-2.092a5.966,5.966,0,0,0,1.311-2.983c.639-3.8-1.176-7.562-2.941-10.924a1.345,1.345,0,0,0-.681-.739,1.269,1.269,0,0,0-.723.084,16.428,16.428,0,0,0-3.9,1.9" transform="translate(-56.775 -48.113)" fill="#3e3e54"/>
    <path id="Caminho_43" data-name="Caminho 43" d="M312.193,296.636a3.839,3.839,0,0,0-1.017,1.16,3.269,3.269,0,0,0,1.042,3.8,8.293,8.293,0,0,0,3.907,1.538,41.256,41.256,0,0,0,10.218.647,4.159,4.159,0,0,0,4.2-2.26,69.33,69.33,0,0,0,4.2-7.562c.95-2.025-.966-3.075-2.748-3.5-1.6-.378-2.891.361-4.311,1-3.252,1.47-6.764,1.773-10.176,2.68A13.772,13.772,0,0,0,312.193,296.636Z" transform="translate(-49.575 -47.488)" fill="#3e3e54"/>
    <path id="Caminho_44" data-name="Caminho 44" d="M391.395,136.192c1.336,1.681,1.882,3.941,3.134,5.722a3.849,3.849,0,0,0,3.059,1.916c1.555-.059,2.638-1.521,4-2.277a3.252,3.252,0,0,0,2.748,1.512,7.2,7.2,0,0,0,3.159-.765,17.955,17.955,0,0,0,4.663-3.033,1.353,1.353,0,0,0,.437-.563,1.446,1.446,0,0,0,0-.731l-2.84-13.192a12.823,12.823,0,0,0-1.991-5.26,8.276,8.276,0,0,0-3.126-2.336c-4.269-1.966-9.7-1.126-12.6,2.722-2.017,2.647-.437,5.882-.84,8.882-.2,1.37-.773,2.622-1.034,3.958C389.765,134.285,390.521,135.075,391.395,136.192Z" transform="translate(-62.211 -19.664)" fill="url(#linear-gradient-7)"/>
    <path id="Caminho_45" data-name="Caminho 45" d="M390.547,117.291c1.5,1.681,4.025,1.949,6.294,1.933a12.814,12.814,0,0,1,3.453.235,3.756,3.756,0,0,1,2.6,2.092,11.94,11.94,0,0,1,.269,3.109,1.949,1.949,0,0,0,.513,1.244.9.9,0,0,0,1.227.042c.395-.437.378-1.42.949-1.319a.672.672,0,0,1,.429.361,3.521,3.521,0,0,1-.067,3.764c-.479.706-1.244,1.6-.7,2.244.319.37.84.361,1.328.529,1.5.58,1.5,3,2.958,3.706a2.277,2.277,0,0,0,2.109-.21,5.706,5.706,0,0,0,1.546-1.563,26.779,26.779,0,0,0,5.176-13.486,9.243,9.243,0,0,0-.429-4.42,8.958,8.958,0,0,0-2.848-3.445c-1.765-1.42-4.159-2.6-6.235-1.681-.647.286-1.328.773-1.991.529a2.311,2.311,0,0,1-.773-.6c-2.933-2.916-7.731-3.428-11.579-1.9-1.445.58-4.294,1.176-5.042,2.655a6.26,6.26,0,0,0,.807,6.176Z" transform="translate(-62.086 -18.299)" fill="#b7a451"/>
    <rect id="Retângulo_5" data-name="Retângulo 5" width="202.261" height="6.579" transform="translate(146.728 169.465)" fill="#68e1fd"/>
    <rect id="Retângulo_6" data-name="Retângulo 6" width="202.261" height="6.579" transform="translate(146.728 169.465)" fill="url(#linear-gradient-8)"/>
    <rect id="Retângulo_7" data-name="Retângulo 7" width="4.823" height="87.749" transform="translate(157.92 175.826)" fill="#68e1fd"/>
    <rect id="Retângulo_8" data-name="Retângulo 8" width="4.823" height="88.279" transform="translate(196.203 176.062)" fill="#68e1fd"/>
    <rect id="Retângulo_9" data-name="Retângulo 9" width="4.823" height="87.749" transform="translate(157.92 175.826)" fill="url(#linear-gradient-9)"/>
    <rect id="Retângulo_10" data-name="Retângulo 10" width="4.823" height="88.279" transform="translate(196.203 176.062)" fill="url(#linear-gradient-10)"/>
    <rect id="Retângulo_11" data-name="Retângulo 11" width="4.823" height="88.287" transform="translate(342.056 176.053)" fill="#68e1fd"/>
    <rect id="Retângulo_12" data-name="Retângulo 12" width="4.823" height="88.287" transform="translate(342.056 176.053)" fill="url(#linear-gradient-11)"/>
    <path id="Caminho_46" data-name="Caminho 46" d="M32.03,309.113c-.328.63-.731,1.21-1.067,1.84a8.941,8.941,0,0,0-.924,5.6,5.2,5.2,0,0,0,2.563,3.949,6.042,6.042,0,0,0,3.3.328c1.765-.2,3.647-.79,4.6-2.277a7.277,7.277,0,0,0,.84-3.361,9.983,9.983,0,0,0-.5-5.042c-.563-1.193-1.6-2.143-2.042-3.361-.387-1.067-.37-2.37-1.227-3.109-1.025-.882-3.075-.345-3.874.655C32.71,305.61,32.769,307.685,32.03,309.113Z" transform="translate(-4.687 -49.546)" fill="#68e1fd"/>
    <path id="Caminho_47" data-name="Caminho 47" d="M58.126,302.633a4.238,4.238,0,0,0-.2,3.176c.622,1.26,2.244,1.555,3.47,2.235s2.008,1.681,3.159,2.269a9.242,9.242,0,0,0,3.9.84,52.089,52.089,0,0,0,5.252,0,9.31,9.31,0,0,0,3.781-.731,2.017,2.017,0,0,0,.765-.58c.664-.908-.084-2.16-.9-2.916a12.545,12.545,0,0,0-4.865-2.79c-2.185-.655-4.764-.84-6.134-2.672-1.017-1.344-1.118-3.361-2.454-4.353C60.168,294.29,58.832,300.524,58.126,302.633Z" transform="translate(-9.121 -48.452)" fill="#68e1fd"/>
    <path id="Caminho_48" data-name="Caminho 48" d="M30.081,272.4l.84,10.394c.227,2.689.84,5.932,3.361,6.865,1.991.739,4.285-.5,5.445-2.277a13.681,13.681,0,0,0,1.681-6.092c2.252-19.872,2.454-40.072,7.075-59.525A369.96,369.96,0,0,1,53.8,275.273a15.352,15.352,0,0,0,.723,5.218,5.1,5.1,0,0,0,3.773,3.361c2.075.277,4.05-1.277,4.941-3.176a15,15,0,0,0,.975-6.176L65.4,198.514c.05-3.487.227-7.294,2.521-9.915-10.47-.059-21.847.471-32.308.412a3.143,3.143,0,0,0-1.924.4,3.185,3.185,0,0,0-.966,2.2A350.168,350.168,0,0,0,30.081,272.4Z" transform="translate(-4.52 -31.234)" fill="#3e3e54"/>
    <path id="Caminho_49" data-name="Caminho 49" d="M29.9,272.4l.84,10.394c.218,2.689.84,5.932,3.361,6.865,2,.739,4.294-.5,5.453-2.277a13.681,13.681,0,0,0,1.681-6.092c2.252-19.872,2.454-40.072,7.075-59.525a369.947,369.947,0,0,1,5.31,53.508,15.562,15.562,0,0,0,.731,5.218,5.1,5.1,0,0,0,3.764,3.361c2.084.277,4.058-1.277,4.949-3.176a15,15,0,0,0,.975-6.176l1.176-75.985c.059-3.487.227-7.294,2.521-9.915-10.47-.059-21.847.471-32.308.412a3.126,3.126,0,0,0-1.924.4,3.184,3.184,0,0,0-.966,2.2A350.172,350.172,0,0,0,29.9,272.4Z" transform="translate(-4.491 -31.234)" fill="url(#linear-gradient-12)"/>
    <path id="Caminho_50" data-name="Caminho 50" d="M99.082,148.787a3.084,3.084,0,0,1-.655,1.983,3.26,3.26,0,0,1-1.681.748c-7.84,1.832-15.965,2.151-24.006,2.462-1.286.042-2.874-.067-3.42-1.244v4.3c0,4.672-.1,9.52,0,14.024a17.528,17.528,0,0,1-.538,5.739c-1.168,3.613-4.6,6.126-8.226,7.226s-7.512.983-11.31.84l-12.016-.353a8.008,8.008,0,0,1-3.059-.487c-2.706-1.2-3.235-4.756-3.361-7.705-.37-8.512-.2-17.335.118-26.107.227-6.26.529-12.486.765-18.553a9.27,9.27,0,0,1,4.143-6.857,24.107,24.107,0,0,1,7.6-3.218,37.761,37.761,0,0,0,7.806-2.748,36.384,36.384,0,0,1,13.52,4.991,22.36,22.36,0,0,1,9.579,10.974c.723,1.916,1.227,4.109,2.882,5.319s3.731,1.017,5.68.891a92.479,92.479,0,0,1,12.016.059c1.3.084,2.773.286,3.571,1.328a4.453,4.453,0,0,1,.672,2.521,30.568,30.568,0,0,1-.084,3.865Z" transform="translate(-4.795 -20.092)" fill="#68e1fd"/>
    <path id="Caminho_51" data-name="Caminho 51" d="M50.429,161.563c-.84-.454-1.681-.84-2.437-1.319s-1.428-.975-2.117-1.487l-4.336-3.277a5.041,5.041,0,0,1-.84-.765,3.445,3.445,0,0,1-.689-2.521,8.562,8.562,0,0,1,.773-2.571c.487-1.134,1.059-2.386.706-3.58-.429-1.487-2.092-2.235-3.613-2.521a1.764,1.764,0,0,0-.756,0,1.681,1.681,0,0,0-1.008,1.025,12.965,12.965,0,0,0-.966,4.353l-.546,5.235a5.638,5.638,0,0,0,0,1.681c.353,1.563,1.941,2.462,3.285,3.361a73.943,73.943,0,0,1,5.974,4.773,16.806,16.806,0,0,0,6.663,3.622,6.226,6.226,0,0,0,3.143,0,3.781,3.781,0,0,0,1.756-1.092c.765-.84.244-1.092-.529-1.731a31.8,31.8,0,0,0-4.462-3.185Z" transform="translate(-5.424 -24.028)" fill="url(#linear-gradient-13)"/>
    <path id="Caminho_52" data-name="Caminho 52" d="M61.028,180.4s-4.68,1.849-8.4-.647-9.352-6.2-9.352-6.2l-8.688-3.361v14.562s.218,4.579,2.6,5.764a8.008,8.008,0,0,1-3.059-.487c-2.706-1.2-3.235-4.756-3.361-7.705-.37-8.512-.2-17.335.118-26.107l24.368,18.646Z" transform="translate(-4.789 -26.062)" fill="url(#linear-gradient-14)"/>
    <path id="Caminho_53" data-name="Caminho 53" d="M22.287,148.97a6.722,6.722,0,0,0-.58,3.176,6.084,6.084,0,0,0,1.639,3.008c4.588,5.294,11.167,8.344,17.536,11.243a8.672,8.672,0,0,0,3.361,1.017c3.033,0,4.277-1.907,4.706-4.907a2.966,2.966,0,0,0-.05-1.412,3.622,3.622,0,0,0-1.588-1.588c-3.546-2.286-8.4-4.008-11.386-7a2.521,2.521,0,0,1-.84-1.445c-.067-.7,6.857-11.949,5.252-15.805s-3.647-9.781-7.68-7.42C26.892,131.249,24.018,144.147,22.287,148.97Z" transform="translate(-3.373 -21.443)" fill="#68e1fd"/>
    <path id="Caminho_54" data-name="Caminho 54" d="M117.877,143.168a.765.765,0,0,1,.655-.076.681.681,0,0,1,.269.546,5.041,5.041,0,0,1-.319,2.521l4.5.4c1.412.126,3.067.4,3.689,1.681s-.345,3.033-1.6,3.907c-2.235,1.546-5.109,1.756-7.823,1.807a15.125,15.125,0,0,1-4.806-.454c-2.361-.731-5.151-3.445-3.277-5.882C110.81,145.4,115.5,144.268,117.877,143.168Z" transform="translate(-17.246 -23.959)" fill="url(#linear-gradient-15)"/>
    <path id="Caminho_55" data-name="Caminho 55" d="M61.107,169.847a3.361,3.361,0,0,1,1.462.387,1.134,1.134,0,0,1,.529,1.3c-.387.966-2.244.731-2.4,1.765a1.529,1.529,0,0,0,.563,1.16l2.664,2.849a7.1,7.1,0,0,1,1.63,2.311,2.37,2.37,0,0,1-.571,2.613,3.21,3.21,0,0,1-2.521.336A18.074,18.074,0,0,1,49.906,173.7C46.049,166.771,58,169.527,61.107,169.847Z" transform="translate(-7.758 -28.11)" fill="url(#linear-gradient-16)"/>
    <path id="Caminho_56" data-name="Caminho 56" d="M70.775,96.675c-.218,2.26-.454,4.529-.681,6.789a2.916,2.916,0,0,1-.134.765c-.1.26-.277.487-.387.756a3.655,3.655,0,0,0-.126,1.63c.168,2.521,0,5.327-1.681,7.268a4.378,4.378,0,0,1-1.025.9,5.554,5.554,0,0,1-3.6.5,3.571,3.571,0,0,0-.992,0,.933.933,0,0,0-.58.269,1.68,1.68,0,0,0-.345.613,11.706,11.706,0,0,0-.42,1.4,3.126,3.126,0,0,1-.664,1.555,2,2,0,0,1-1.445.445,3.361,3.361,0,0,1-.714-.1,8.957,8.957,0,0,1-3.075-1.622,3.445,3.445,0,0,1-1.807-3.42q-.193-3.6-.387-7.176c-.185-3.361-.336-6.831,1.025-9.89A10.579,10.579,0,0,1,66.3,91.473a7.008,7.008,0,0,1,1.975.84,8.705,8.705,0,0,1,2.126,2.1C71.01,95.213,70.867,95.7,70.775,96.675Z" transform="translate(-8.309 -15.656)" fill="url(#linear-gradient-17)"/>
    <path id="Caminho_57" data-name="Caminho 57" d="M67.255,94.062a20.915,20.915,0,0,1-3.907,0,9.487,9.487,0,0,0-4.2.84,6.722,6.722,0,0,0-3.647,5.369c-.067.773-.151,1.781-.907,1.966s-1.193-.471-1.84-.538a1.5,1.5,0,0,0-1.512,1.328,3.3,3.3,0,0,0,.563,2.109,14.655,14.655,0,0,1,1.126,1.916,3.991,3.991,0,0,1-.84,4.143,13.444,13.444,0,0,1-3.025-6.8,26.174,26.174,0,0,1,.05-7.512,7.167,7.167,0,0,1,.689-2.521c.218-.387.513-.739.731-1.126.353-.639.521-1.37.84-2.042a7.386,7.386,0,0,1,4.2-3.773,13.755,13.755,0,0,1,5.7-.739,11.3,11.3,0,0,0,3.664-.143c2.025-.58,6.6-2.714,7.562.639C73.423,90.348,70.112,93.566,67.255,94.062Z" transform="translate(-7.705 -14.74)" fill="#3e3e54"/>
    <path id="Caminho_58" data-name="Caminho 58" d="M61.538,104.912a1,1,0,0,0-1.109.647,3.1,3.1,0,0,0-.319,1.5,1.681,1.681,0,0,0,.748,1.277,2.3,2.3,0,0,0,1.042.227,10.4,10.4,0,0,0,2.168-.126.529.529,0,0,0,.277-.1.5.5,0,0,0,.109-.345l.092-1.521a2.21,2.21,0,0,0-.067-.882C64.084,104.534,62.378,104.845,61.538,104.912Z" transform="translate(-9.509 -17.852)" fill="none" stroke="#fff" stroke-miterlimit="10" stroke-width="0.77"/>
    <path id="Caminho_59" data-name="Caminho 59" d="M69.1,104.912a1.344,1.344,0,0,0-.882.294,1.185,1.185,0,0,0-.218.353,3.008,3.008,0,0,0-.319,1.5,1.6,1.6,0,0,0,.756,1.286,2.294,2.294,0,0,0,1.034.227,10.452,10.452,0,0,0,2.176-.126.479.479,0,0,0,.269-.1.462.462,0,0,0,.109-.345l.092-1.521a1.941,1.941,0,0,0-.067-.882C71.654,104.534,69.948,104.845,69.1,104.912Z" transform="translate(-10.718 -17.852)" fill="none" stroke="#fff" stroke-miterlimit="10" stroke-width="0.77"/>
    <path id="Caminho_60" data-name="Caminho 60" d="M52.775,103.99a1.134,1.134,0,0,0-.445-.05,2.58,2.58,0,0,0-1.479.588,1.723,1.723,0,0,0-.42.5,2.008,2.008,0,0,0-.126,1.092,3.638,3.638,0,0,0,.731,1.975c.269.328,1.739,1.731,2.159,1.756s1.286-.647,1.58-1c.412-.513-.521-2.37-.563-3.042a3.033,3.033,0,0,0-1.437-1.823Z" transform="translate(-7.939 -17.711)" fill="url(#linear-gradient-18)"/>
    <path id="Caminho_61" data-name="Caminho 61" d="M53.055,107.038a.967.967,0,0,0,0-.311.655.655,0,0,0-.126-.269,1.244,1.244,0,0,0-1.2-.462.773.773,0,0,0-.613.479,1.017,1.017,0,0,0,.084.714,4.26,4.26,0,0,0,.42.84,2.134,2.134,0,0,0,.639.647,1.033,1.033,0,0,0,.882.109c.269-.1.6-.479.378-.756-.109-.134-.277-.176-.37-.345a1.059,1.059,0,0,1-.092-.647Z" transform="translate(-8.067 -18.037)" fill="url(#linear-gradient-19)"/>
    <path id="Caminho_62" data-name="Caminho 62" d="M63.154,119.84a.933.933,0,0,0-.58.269,1.68,1.68,0,0,0-.345.613,11.7,11.7,0,0,0-.42,1.4,3.126,3.126,0,0,1-.664,1.555,2,2,0,0,1-1.445.445,3.361,3.361,0,0,1-.714-.1,3.512,3.512,0,0,1-.26-1.781,12.159,12.159,0,0,1,.193-1.571,1.126,1.126,0,0,1,.277-.689,1.277,1.277,0,0,1,.924-.235h2.4a3.731,3.731,0,0,1,.63.092Z" transform="translate(-9.284 -20.235)" fill="url(#linear-gradient-20)"/>
    <path id="Caminho_63" data-name="Caminho 63" d="M76.25,163.474l.395-4.294v4.3Z" transform="translate(-12.087 -26.535)" fill="#68e1fd"/>
    <path id="Caminho_64" data-name="Caminho 64" d="M106.442,153.07a3.084,3.084,0,0,1-.655,1.983,3.26,3.26,0,0,1-1.681.748c-7.84,1.832-15.965,2.151-24.006,2.462-1.286.042-2.874-.067-3.42-1.244V145.65s2.218,6.957,5.882,6.722,21.956-1.084,21.956-1.084Z" transform="translate(-12.156 -24.374)" fill="url(#linear-gradient-21)"/>
    <rect id="Retângulo_13" data-name="Retângulo 13" width="140.56" height="9.041" transform="translate(115.251 31.191)" fill="url(#linear-gradient-22)"/>
    <path id="Caminho_65" data-name="Caminho 65" d="M294.683,109.531A26.947,26.947,0,1,1,270.727,70.24h.185V97.179Z" transform="translate(-38.847 -12.329)" fill="url(#linear-gradient-23)"/>
    <path id="Caminho_66" data-name="Caminho 66" d="M302.833,97.219a26.887,26.887,0,0,1-2.991,12.352L276.07,97.219V70.28a26.939,26.939,0,0,1,26.763,26.939Z" transform="translate(-44.005 -12.335)" fill="url(#linear-gradient-24)"/>
    <rect id="Retângulo_14" data-name="Retângulo 14" width="6.033" height="38.442" transform="translate(115.251 71.137)" fill="url(#linear-gradient-25)"/>
    <rect id="Retângulo_15" data-name="Retângulo 15" width="6.033" height="27.073" transform="translate(124.83 82.498)" fill="url(#linear-gradient-26)"/>
    <rect id="Retângulo_16" data-name="Retângulo 16" width="6.033" height="38.442" transform="translate(134.409 71.137)" fill="url(#linear-gradient-27)"/>
    <rect id="Retângulo_17" data-name="Retângulo 17" width="6.033" height="45.652" transform="translate(143.988 63.928)" fill="url(#linear-gradient-28)"/>
    <path id="Caminho_67" data-name="Caminho 67" d="M397.288,184.158l-9.083,8.075c-2.042,1.823-4.437,3.764-7.167,3.512a6.6,6.6,0,0,1-4.613-2.983,16.116,16.116,0,0,1-2.117-5.235,59.045,59.045,0,0,1-1.244-22.6,1.74,1.74,0,0,1,.3-.891,1.79,1.79,0,0,1,1.353-.429l4.277-.126a2.059,2.059,0,0,1,2.521,1.5l4.008,9.117c3.017-3.159,7.789-13.654,10.8-16.805.748-.79,7.932-7.285,11.411,7.167C408.934,169.5,401.2,180.679,397.288,184.158Z" transform="translate(-59.408 -25.893)" fill="#68e1fd"/>
    <path id="Caminho_68" data-name="Caminho 68" d="M374.343,156.194a5.747,5.747,0,0,1,.555-2.2,5.445,5.445,0,0,1,1.681-1.739,16.948,16.948,0,0,1,4.2-2.218,3.361,3.361,0,0,1,1.681-.277,2.832,2.832,0,0,1,1.521.84,5.613,5.613,0,0,1,1.21,6.033c-.941,2.218-3.269,3.7-3.9,6.025-.269,1-.218,2.159-.882,2.958a3.722,3.722,0,0,1-2.613,1.025c-2.4.227-3.042-.5-3.227-2.613A40.828,40.828,0,0,1,374.343,156.194Z" transform="translate(-59.687 -25.028)" fill="url(#linear-gradient-29)"/>
    <path id="Caminho_69" data-name="Caminho 69" d="M404.55,151.793V148.6a1.184,1.184,0,0,1,.134-.588,1.109,1.109,0,0,1,.513-.353c1.47-.613,3.075-.9,4.512-1.588,1.815-.84,3.453-2.386,5.462-2.361a.773.773,0,0,1,.563.168.84.84,0,0,1,.21.412c.244.79.454,1.588.63,2.4a.529.529,0,0,1,0,.378.555.555,0,0,1-.319.218l-2.075.773C410.86,149.28,407.449,149.784,404.55,151.793Z" transform="translate(-64.527 -24.063)" fill="#68e1fd"/>
    <path id="Caminho_70" data-name="Caminho 70" d="M153.828,271.335a28.548,28.548,0,0,1,7.134-12.377c3.487-3.319,8.4-5.361,13.142-4.663a5.861,5.861,0,0,1,4.395,2.47,5.042,5.042,0,0,1-.487,5.176,15.125,15.125,0,0,1-4.016,3.68,56.451,56.451,0,0,0-9.394,7.848,21.477,21.477,0,0,0-4.6,7.714c-.639,2.008-.05,5.285-1.681,6.773a4.2,4.2,0,0,1-4.579.412c-2.109-1.185-1.756-4.134-1.731-6.218A38.434,38.434,0,0,1,153.828,271.335Z" transform="translate(-24.183 -41.706)" fill="#68e1fd"/>
    <path id="Caminho_71" data-name="Caminho 71" d="M153.828,271.335a28.548,28.548,0,0,1,7.134-12.377c3.487-3.319,8.4-5.361,13.142-4.663a5.861,5.861,0,0,1,4.395,2.47,5.042,5.042,0,0,1-.487,5.176,15.125,15.125,0,0,1-4.016,3.68,56.451,56.451,0,0,0-9.394,7.848,21.477,21.477,0,0,0-4.6,7.714c-.639,2.008-.05,5.285-1.681,6.773a4.2,4.2,0,0,1-4.579.412c-2.109-1.185-1.756-4.134-1.731-6.218A38.434,38.434,0,0,1,153.828,271.335Z" transform="translate(-24.183 -41.706)" fill="url(#linear-gradient-30)"/>
    <path id="Caminho_72" data-name="Caminho 72" d="M154.931,279.687a12.98,12.98,0,0,1-.361-2.336,4.806,4.806,0,0,1,1.781-3.748,17.647,17.647,0,0,1,1.681-1.084,4.411,4.411,0,0,0,2.311-3.294c0-.529-.118-1.059-.092-1.58a1.361,1.361,0,0,1,.79-1.269,1.538,1.538,0,0,1,1.529.739,5.747,5.747,0,0,1,1.067,3.193,10.335,10.335,0,0,1-.5,3.361,8.537,8.537,0,0,1-3.285,4.9,21.427,21.427,0,0,0-2.084,1.218,7.142,7.142,0,0,0-1.941,3.185c-.05.126-.622,5.21-.731,5.294-.723.555.076-5.739.1-5.991A10.688,10.688,0,0,0,154.931,279.687Z" transform="translate(-24.597 -43.656)" fill="url(#linear-gradient-31)"/>
    <path id="Caminho_73" data-name="Caminho 73" d="M136.043,283.356a14.453,14.453,0,0,0-4.319-2.714,80.665,80.665,0,0,1-8.991-5.142c-1.344-.891-2.748-1.941-3.218-3.487s.05-3.025.546-4.479,1.336-3.4,2.975-3.739a4.428,4.428,0,0,1,2.58.487,24.183,24.183,0,0,1,11.764,10.839,38.2,38.2,0,0,1,1.681,3.7,72.882,72.882,0,0,1,2.9,9.159c.538,2.218-1.126,6.235-2.975,2.924C137.539,288.448,138.16,285.591,136.043,283.356Z" transform="translate(-18.968 -43.241)" fill="#68e1fd"/>
    <path id="Caminho_74" data-name="Caminho 74" d="M136.043,283.356a14.453,14.453,0,0,0-4.319-2.714,80.665,80.665,0,0,1-8.991-5.142c-1.344-.891-2.748-1.941-3.218-3.487s.05-3.025.546-4.479,1.336-3.4,2.975-3.739a4.428,4.428,0,0,1,2.58.487,24.183,24.183,0,0,1,11.764,10.839,38.2,38.2,0,0,1,1.681,3.7,72.882,72.882,0,0,1,2.9,9.159c.538,2.218-1.126,6.235-2.975,2.924C137.539,288.448,138.16,285.591,136.043,283.356Z" transform="translate(-18.968 -43.241)" fill="url(#linear-gradient-32)"/>
    <path id="Caminho_75" data-name="Caminho 75" d="M140.055,280.454a11.764,11.764,0,0,0-.2-2.109,4.3,4.3,0,0,0-2.378-2.874,17.079,17.079,0,0,0-1.681-.571,3.932,3.932,0,0,1-2.739-2.353c-.134-.462-.134-.949-.277-1.4a1.193,1.193,0,0,0-.966-.924,1.4,1.4,0,0,0-1.16.983,5.109,5.109,0,0,0-.227,3.008,9.1,9.1,0,0,0,1.176,2.815,7.655,7.655,0,0,0,3.941,3.538,19.152,19.152,0,0,1,2.084.605,6.285,6.285,0,0,1,2.395,2.344c.067.1,2.6,6.722,2.722,6.722.748.328-2.252-7.268-2.328-7.487A9.293,9.293,0,0,1,140.055,280.454Z" transform="translate(-20.72 -44.272)" fill="url(#linear-gradient-33)"/>
    <path id="Caminho_76" data-name="Caminho 76" d="M142.595,277.343a44.05,44.05,0,0,1-3.756-6.722,15.7,15.7,0,0,1,1.176-13.511,60.658,60.658,0,0,1,3.958-5.235c2.764-3.63,4.781-8.4,3.361-12.7-.555-1.681-1.563-3.1-2.075-4.748s-.387-3.714.975-4.773c1.555-1.2,3.848-.521,5.512.538a18.578,18.578,0,0,1,6.882,8.537,32.989,32.989,0,0,1,2.294,10.848c.412,6.546-.5,13.512-4.487,18.73-1.6,2.084-3.638,3.84-4.991,6.092-2.109,3.529-2.3,7.84-2.311,11.949a2.521,2.521,0,0,1-.244,1.311c-1.58,2.521-2.269-1.924-2.521-2.714A33.2,33.2,0,0,0,142.595,277.343Z" transform="translate(-21.924 -37.69)" fill="#68e1fd"/>
    <path id="Caminho_77" data-name="Caminho 77" d="M142.595,277.343a44.05,44.05,0,0,1-3.756-6.722,15.7,15.7,0,0,1,1.176-13.511,60.658,60.658,0,0,1,3.958-5.235c2.764-3.63,4.781-8.4,3.361-12.7-.555-1.681-1.563-3.1-2.075-4.748s-.387-3.714.975-4.773c1.555-1.2,3.848-.521,5.512.538a18.578,18.578,0,0,1,6.882,8.537,32.989,32.989,0,0,1,2.294,10.848c.412,6.546-.5,13.512-4.487,18.73-1.6,2.084-3.638,3.84-4.991,6.092-2.109,3.529-2.3,7.84-2.311,11.949a2.521,2.521,0,0,1-.244,1.311c-1.58,2.521-2.269-1.924-2.521-2.714A33.2,33.2,0,0,0,142.595,277.343Z" transform="translate(-21.924 -37.69)" fill="url(#linear-gradient-34)"/>
    <path id="Caminho_78" data-name="Caminho 78" d="M146.533,283.548a14.224,14.224,0,0,1-1.151-2.067,4.806,4.806,0,0,1,.361-4.134,17.161,17.161,0,0,1,1.218-1.6,4.4,4.4,0,0,0,1.017-3.89c-.168-.5-.479-.95-.639-1.454a1.353,1.353,0,0,1,.3-1.462,1.529,1.529,0,0,1,1.681.16,5.73,5.73,0,0,1,2.109,2.622,10.15,10.15,0,0,1,.706,3.361,8.579,8.579,0,0,1-1.378,5.739,21.46,21.46,0,0,0-1.529,1.865,7.033,7.033,0,0,0-.706,3.655.84.84,0,0,1-.076.4c-.487.781-.7-.588-.765-.84A10.151,10.151,0,0,0,146.533,283.548Z" transform="translate(-23.081 -44.038)" fill="url(#linear-gradient-35)"/>
    <path id="Caminho_79" data-name="Caminho 79" d="M137.26,291.37h22.376l-5.285,17.091h-12.5Z" transform="translate(-21.925 -46.541)" fill="#68e1fd"/>
    <path id="Caminho_80" data-name="Caminho 80" d="M137.26,291.37h22.376l-5.285,17.091h-12.5Z" transform="translate(-21.925 -46.541)" fill="url(#linear-gradient-36)"/>
    <rect id="Retângulo_18" data-name="Retângulo 18" width="24.233" height="4.781" transform="translate(114.277 244.854)" fill="#68e1fd"/>
    <rect id="Retângulo_19" data-name="Retângulo 19" width="24.233" height="4.781" transform="translate(114.277 244.854)" fill="url(#linear-gradient-37)"/>
  </g>
</svg>
