<svg width="98" height="98" viewBox="0 0 98 98" fill="none" xmlns="http://www.w3.org/2000/svg">
<g clip-path="url(#clip0)">
<path d="M9.84166 97.9999H76.7772C82.1849 97.9946 86.5672 93.6123 86.5725 88.2046C86.5725 87.3026 85.8416 86.5717 84.9395 86.5717C84.0383 86.5717 83.3074 87.3026 83.3074 88.2046C83.3074 91.8112 80.3838 94.7348 76.7772 94.7348H9.84166C6.23504 94.7348 3.31148 91.8112 3.31148 88.2046V81.6744C3.31148 78.0678 6.23504 75.1442 9.84166 75.1442C13.4483 75.1442 16.3719 78.0678 16.3719 81.6744C16.3719 82.5757 17.1027 83.3066 18.004 83.3066C18.9061 83.3066 19.6369 82.5757 19.6369 81.6744V22.902H24.535V60.0429C24.5342 60.2521 24.5746 60.4591 24.6523 60.6535L29.6676 73.1033C30.1639 74.3401 31.3648 75.1487 32.6973 75.1442H37.5953C38.4966 75.1442 39.2275 74.4133 39.2275 73.5113C39.2275 72.61 38.4966 71.8791 37.5953 71.8791H36.2202L40.7431 60.6535C40.8208 60.4591 40.8604 60.2521 40.8604 60.0429V8.16311C40.8604 3.65445 37.206 0 32.6973 0C28.1894 0 24.535 3.65445 24.535 8.16311V19.6369H19.6369V16.3718C19.6369 10.9619 15.2516 6.57577 9.84166 6.57577C4.43173 6.57577 0.0463867 10.9619 0.0463867 16.3718V88.2046C0.0516181 93.6123 4.43397 97.9946 9.84166 97.9999V97.9999ZM37.5953 56.7464C36.5827 56.1896 35.4759 55.8249 34.3302 55.6725V27.7993C34.3302 26.898 33.5993 26.1671 32.6973 26.1671C31.796 26.1671 31.0651 26.898 31.0651 27.7993V55.6725C29.9195 55.8249 28.8119 56.1896 27.8 56.7464V16.3718H37.5953V56.7464ZM32.6973 71.8791L28.1266 60.5473C29.3373 59.3516 30.9979 58.7238 32.6973 58.818C34.3967 58.7231 36.0573 59.3509 37.2687 60.5473L32.6973 71.8791ZM32.6973 3.31068C35.3885 3.30096 37.5796 5.47196 37.5953 8.16311V13.106H27.8V8.16311C27.815 5.47196 30.0062 3.30096 32.6973 3.31068ZM9.84166 9.84087C13.4483 9.84087 16.3719 12.7652 16.3719 16.3718V74.3932C12.6636 71.0406 7.01974 71.0406 3.31148 74.3932V16.3718C3.31148 12.7652 6.23504 9.84087 9.84166 9.84087V9.84087Z" fill="white"/>
<path d="M44.1255 22.6075V26.4608C44.1255 28.0167 45.2233 29.3567 46.7494 29.6624L49.8411 30.2811L48.0923 32.9043C47.2344 34.2009 47.4048 35.922 48.5011 37.0251L51.2274 39.7498C52.3297 40.8454 54.0501 41.0158 55.3459 40.1579L57.9698 38.4114L58.5886 41.5016C58.8943 43.0269 60.2342 44.1255 61.7902 44.1255H65.6427C67.1986 44.1255 68.5386 43.0269 68.8442 41.5016L69.463 38.4114L72.0862 40.1594C73.3828 41.0188 75.1046 40.8484 76.2069 39.7513L78.9317 37.0251C80.028 35.9228 80.1984 34.2024 79.3398 32.9058L77.5932 30.2811L80.6835 29.6624C82.2095 29.3567 83.3073 28.0167 83.3073 26.4608V22.6075C83.3073 21.0516 82.2095 19.7124 80.6835 19.4067L77.5932 18.7879L79.3398 16.164C80.1984 14.8674 80.028 13.1463 78.9317 12.0433L76.2054 9.31848C75.1031 8.22215 73.382 8.05176 72.0862 8.91044L69.463 10.6577L68.8442 7.56674C68.5386 6.04143 67.1986 4.9436 65.6427 4.9436H61.7902C60.2342 4.9436 58.8943 6.04143 58.5886 7.56674L57.9698 10.6577L55.3459 8.91044C54.0493 8.0525 52.3282 8.2229 51.2259 9.31848L48.5011 12.0448C47.4048 13.1478 47.2344 14.8682 48.0923 16.164L49.8396 18.7879L46.7494 19.4067C45.2233 19.7124 44.1255 21.0516 44.1255 22.6075V22.6075ZM47.3906 22.6075L50.483 21.9888C51.5502 21.7758 52.4418 21.0434 52.8588 20.0375C53.2751 19.0308 53.163 17.8837 52.5591 16.9771L50.8089 14.3518L53.5359 11.627L56.159 13.3772C57.0655 13.9811 58.2134 14.0932 59.2193 13.6762C60.2253 13.2599 60.9576 12.3683 61.1714 11.3004L61.7902 8.2087H65.6427L66.2615 11.3004C66.4752 12.3683 67.2076 13.2599 68.2135 13.6762C69.2194 14.0932 70.3673 13.9811 71.2738 13.3772L73.8984 11.627L76.6232 14.3533L74.873 16.9771C74.2699 17.8837 74.157 19.0308 74.574 20.0375C74.991 21.0434 75.8819 21.7758 76.9498 21.9888L80.0422 22.6075V26.4608L76.9498 27.0796C75.8819 27.2933 74.991 28.025 74.574 29.0316C74.157 30.0375 74.2699 31.1854 74.873 32.0912L76.6232 34.7166L73.8969 37.4413L71.2738 35.6911C70.3673 35.0872 69.2194 34.9751 68.2135 35.3921C67.2076 35.8092 66.4752 36.7 66.2615 37.7679L65.6427 40.8604H61.7902L61.1714 37.7679C60.9576 36.7 60.2253 35.8092 59.2193 35.3921C58.2134 34.9751 57.0655 35.0872 56.159 35.6911L53.5336 37.4413L50.8089 34.7151L52.5591 32.0912C53.163 31.1854 53.2751 30.0375 52.8588 29.0316C52.4418 28.025 51.5502 27.2933 50.483 27.0796L47.3906 26.4608V22.6075Z" fill="white"/>
<path d="M63.7157 34.3294C69.1256 34.3294 73.5117 29.9441 73.5117 24.5342C73.5117 19.1242 69.1256 14.7389 63.7157 14.7389C58.3058 14.7389 53.9204 19.1242 53.9204 24.5342C53.9256 29.9419 58.308 34.3242 63.7157 34.3294V34.3294ZM63.7157 18.004C67.3223 18.004 70.2466 20.9275 70.2466 24.5342C70.2466 28.1408 67.3223 31.0644 63.7157 31.0644C60.1091 31.0644 57.1855 28.1408 57.1855 24.5342C57.1855 20.9275 60.1091 18.004 63.7157 18.004V18.004Z" fill="white"/>
<path d="M95.3763 60.2208L92.2861 59.602L94.0341 56.9781C94.8928 55.6823 94.7224 53.9604 93.6261 52.8581L90.8983 50.1333C89.796 49.037 88.0749 48.8666 86.779 49.7253L84.1559 51.4718L83.5371 48.3816C83.2314 46.8555 81.8915 45.7577 80.3355 45.7577H76.4823C74.9263 45.7577 73.5871 46.8555 73.2815 48.3816L72.6627 51.4718L70.0388 49.7253C68.7422 48.8658 67.0211 49.0362 65.918 50.1333L63.1932 52.8596C62.0977 53.9619 61.9273 55.6823 62.7852 56.9781L64.5325 59.602L61.4415 60.2208C59.9162 60.5265 58.8184 61.8664 58.8184 63.4224V67.2749C58.8184 68.8308 59.9162 70.1708 61.4415 70.4764L64.534 71.0952L62.7852 73.7191C61.9273 75.015 62.0977 76.7368 63.1932 77.8391L65.9203 80.5639C67.0226 81.6595 68.7429 81.8299 70.0388 80.972L72.6627 79.2254L73.2815 82.3157C73.5871 83.8417 74.9263 84.9395 76.4823 84.9395H80.3355C81.8915 84.9395 83.2314 83.8417 83.5371 82.3157L84.1559 79.2254L86.779 80.9742C88.0756 81.8329 89.7975 81.6625 90.8998 80.5662L93.6246 77.8391C94.7202 76.7368 94.8906 75.0165 94.0326 73.7206L92.2861 71.0952L95.3763 70.4764C96.9016 70.1708 98.0002 68.8308 98.0002 67.2749V63.4224C98.0002 61.8664 96.9016 60.5265 95.3763 60.2208V60.2208ZM94.7351 67.2749L91.6427 67.8937C90.5747 68.1074 89.6839 68.8398 89.2669 69.8457C88.8499 70.8516 88.962 71.9995 89.5658 72.906L91.3161 75.5306L88.5898 78.2554L85.9659 76.5059C85.0602 75.9021 83.9123 75.79 82.9064 76.2062C81.8997 76.6232 81.1681 77.5141 80.9543 78.582L80.3355 81.6745H76.4823L75.8635 78.582C75.6505 77.5141 74.9181 76.6232 73.9122 76.2062C72.9056 75.79 71.7584 75.9021 70.8519 76.5059L68.2265 78.2554L65.5017 75.5291L67.252 72.906C67.8558 71.9995 67.9679 70.8516 67.5509 69.8457C67.1347 68.8398 66.2431 68.1074 65.1752 67.8937L62.0835 67.2749V63.4224L65.1752 62.8036C66.2431 62.5898 67.1347 61.8575 67.5509 60.8516C67.9679 59.8456 67.8558 58.6977 67.252 57.7912L65.5017 55.1666L68.228 52.4418L70.8519 54.1913C71.7584 54.7952 72.9056 54.9073 73.9122 54.491C74.9181 54.074 75.6505 53.1832 75.8635 52.1152L76.4823 49.0228H80.3355L80.9543 52.1152C81.1681 53.1832 81.8997 54.074 82.9064 54.491C83.9123 54.9073 85.0602 54.7952 85.9659 54.1913L88.5913 52.4418L91.3161 55.1681L89.5658 57.7912C88.962 58.6977 88.8499 59.8456 89.2669 60.8516C89.6839 61.8575 90.5747 62.5898 91.6427 62.8036L94.7351 63.4224V67.2749Z" fill="white"/>
<path d="M78.409 55.553C72.9991 55.553 68.6138 59.9391 68.6138 65.349C68.6138 70.7582 72.9991 75.1443 78.409 75.1443C83.819 75.1443 88.2043 70.7582 88.2043 65.349C88.1991 59.9413 83.8167 55.559 78.409 55.553V55.553ZM78.409 71.8792C74.8024 71.8792 71.8789 68.9549 71.8789 65.349C71.8789 61.7424 74.8024 58.8181 78.409 58.8181C82.0157 58.8181 84.9392 61.7424 84.9392 65.349C84.9392 68.9549 82.0157 71.8792 78.409 71.8792V71.8792Z" fill="white"/>
<path d="M42.4922 73.5113C42.4922 74.4133 43.2231 75.1442 44.1251 75.1442H55.5533C56.4546 75.1442 57.1855 74.4133 57.1855 73.5113C57.1855 72.61 56.4546 71.8792 55.5533 71.8792H44.1251C43.2231 71.8792 42.4922 72.61 42.4922 73.5113V73.5113Z" fill="white"/>
<path d="M31.0646 81.6745H39.2269C40.129 81.6745 40.8598 80.9436 40.8598 80.0416C40.8598 79.1403 40.129 78.4094 39.2269 78.4094H31.0646C30.1625 78.4094 29.4316 79.1403 29.4316 80.0416C29.4316 80.9436 30.1625 81.6745 31.0646 81.6745Z" fill="white"/>
<path d="M44.1255 80.0416C44.1255 80.9436 44.8564 81.6745 45.7584 81.6745H58.8188C59.7201 81.6745 60.451 80.9436 60.451 80.0416C60.451 79.1403 59.7201 78.4094 58.8188 78.4094H45.7584C44.8564 78.4094 44.1255 79.1403 44.1255 80.0416V80.0416Z" fill="white"/>
<path d="M29.4316 86.5716C29.4316 87.4736 30.1625 88.2045 31.0646 88.2045H63.7155C64.6175 88.2045 65.3484 87.4736 65.3484 86.5716C65.3484 85.6703 64.6175 84.9395 63.7155 84.9395H31.0646C30.1625 84.9395 29.4316 85.6703 29.4316 86.5716V86.5716Z" fill="white"/>
</g>
<defs>
<clipPath id="clip0">
<rect width="98" height="98" fill="white"/>
</clipPath>
</defs>
</svg>
