<svg width="299" height="221" viewBox="0 0 299 221" fill="none" xmlns="http://www.w3.org/2000/svg">
<path d="M102 0.5H205.896C210.039 0.5 213.397 3.85786 213.397 8V45.9217C213.397 50.0638 210.039 53.4217 205.897 53.4217H102C97.8579 53.4217 94.5 50.0638 94.5 45.9217V7.99999C94.5 3.85786 97.8579 0.5 102 0.5Z" fill="white" stroke="white"/>
<path d="M140.805 32H139.485V27.3994H134.468V32H133.155V22.0469H134.468V26.3262H139.485V22.0469H140.805V32ZM142.603 28.2334C142.603 27.5088 142.744 26.8571 143.026 26.2783C143.313 25.6995 143.71 25.2529 144.216 24.9385C144.726 24.624 145.307 24.4668 145.959 24.4668C146.966 24.4668 147.78 24.8154 148.399 25.5127C149.024 26.21 149.336 27.1374 149.336 28.2949V28.3838C149.336 29.1038 149.197 29.751 148.919 30.3252C148.646 30.8949 148.251 31.3392 147.736 31.6582C147.226 31.9772 146.638 32.1367 145.973 32.1367C144.97 32.1367 144.157 31.7881 143.532 31.0908C142.912 30.3936 142.603 29.4707 142.603 28.3223V28.2334ZM143.874 28.3838C143.874 29.2041 144.063 29.8626 144.441 30.3594C144.824 30.8561 145.335 31.1045 145.973 31.1045C146.615 31.1045 147.126 30.8538 147.504 30.3525C147.882 29.8467 148.071 29.1403 148.071 28.2334C148.071 27.4222 147.878 26.766 147.49 26.2646C147.107 25.7588 146.597 25.5059 145.959 25.5059C145.335 25.5059 144.831 25.7542 144.448 26.251C144.065 26.7477 143.874 27.4587 143.874 28.3838ZM152.111 24.6035L152.146 25.4238C152.688 24.7858 153.419 24.4668 154.34 24.4668C155.374 24.4668 156.078 24.8633 156.452 25.6562C156.698 25.3008 157.017 25.0137 157.409 24.7949C157.806 24.5762 158.273 24.4668 158.811 24.4668C160.433 24.4668 161.258 25.3258 161.285 27.0439V32H160.021V27.1191C160.021 26.5905 159.9 26.1963 159.658 25.9365C159.417 25.6722 159.011 25.54 158.441 25.54C157.972 25.54 157.582 25.6813 157.272 25.9639C156.963 26.2419 156.783 26.6178 156.732 27.0918V32H155.461V27.1533C155.461 26.0778 154.935 25.54 153.882 25.54C153.052 25.54 152.485 25.8932 152.18 26.5996V32H150.915V24.6035H152.111ZM166.269 32.1367C165.266 32.1367 164.45 31.8086 163.821 31.1523C163.192 30.4915 162.878 29.6097 162.878 28.5068V28.2744C162.878 27.5407 163.017 26.8867 163.295 26.3125C163.577 25.7337 163.969 25.2826 164.471 24.959C164.977 24.6309 165.523 24.4668 166.111 24.4668C167.073 24.4668 167.82 24.7835 168.354 25.417C168.887 26.0505 169.153 26.9574 169.153 28.1377V28.6641H164.143C164.161 29.3932 164.373 29.9834 164.778 30.4346C165.188 30.8812 165.708 31.1045 166.337 31.1045C166.784 31.1045 167.162 31.0133 167.472 30.8311C167.782 30.6488 168.053 30.4072 168.285 30.1064L169.058 30.708C168.438 31.6605 167.508 32.1367 166.269 32.1367ZM166.111 25.5059C165.601 25.5059 165.173 25.6927 164.826 26.0664C164.48 26.4355 164.266 26.9551 164.184 27.625H167.889V27.5293C167.852 26.8867 167.679 26.39 167.369 26.0391C167.059 25.6836 166.64 25.5059 166.111 25.5059Z" fill="#10A9BC"/>
<path d="M8 117.004H89.6934C93.8356 117.004 97.1934 120.362 97.1934 124.504V152.441C97.1934 156.583 93.8356 159.941 89.6934 159.941H8C3.85787 159.941 0.5 156.583 0.5 152.441V124.504C0.5 120.362 3.85787 117.004 8 117.004Z" fill="white" stroke="white"/>
<path d="M24.4766 141.842C24.3535 142.895 23.9639 143.708 23.3076 144.282C22.6559 144.852 21.7878 145.137 20.7031 145.137C19.5273 145.137 18.584 144.715 17.873 143.872C17.1667 143.029 16.8135 141.901 16.8135 140.488V139.531C16.8135 138.606 16.9775 137.793 17.3057 137.091C17.6383 136.389 18.1077 135.851 18.7139 135.478C19.32 135.099 20.0218 134.91 20.8193 134.91C21.8766 134.91 22.7243 135.206 23.3623 135.799C24.0003 136.387 24.3717 137.202 24.4766 138.246H23.1572C23.0433 137.453 22.7949 136.879 22.4121 136.523C22.0339 136.168 21.5029 135.99 20.8193 135.99C19.9808 135.99 19.3223 136.3 18.8438 136.92C18.3698 137.54 18.1328 138.422 18.1328 139.565V140.529C18.1328 141.609 18.3584 142.468 18.8096 143.106C19.2607 143.744 19.8919 144.063 20.7031 144.063C21.4323 144.063 21.9906 143.899 22.3779 143.571C22.7699 143.239 23.0296 142.662 23.1572 141.842H24.4766ZM27.4502 145H26.1855V134.5H27.4502V145ZM30.8545 145H29.5898V137.604H30.8545V145ZM29.4873 135.642C29.4873 135.437 29.5488 135.263 29.6719 135.122C29.7995 134.981 29.9863 134.91 30.2324 134.91C30.4785 134.91 30.6654 134.981 30.793 135.122C30.9206 135.263 30.9844 135.437 30.9844 135.642C30.9844 135.847 30.9206 136.018 30.793 136.154C30.6654 136.291 30.4785 136.359 30.2324 136.359C29.9863 136.359 29.7995 136.291 29.6719 136.154C29.5488 136.018 29.4873 135.847 29.4873 135.642ZM35.9541 145.137C34.9515 145.137 34.1357 144.809 33.5068 144.152C32.8779 143.492 32.5635 142.61 32.5635 141.507V141.274C32.5635 140.541 32.7025 139.887 32.9805 139.312C33.263 138.734 33.6549 138.283 34.1562 137.959C34.6621 137.631 35.209 137.467 35.7969 137.467C36.7585 137.467 37.5059 137.784 38.0391 138.417C38.5723 139.05 38.8389 139.957 38.8389 141.138V141.664H33.8281C33.8464 142.393 34.0583 142.983 34.4639 143.435C34.874 143.881 35.3936 144.104 36.0225 144.104C36.4691 144.104 36.8473 144.013 37.1572 143.831C37.4671 143.649 37.7383 143.407 37.9707 143.106L38.7432 143.708C38.1234 144.66 37.1937 145.137 35.9541 145.137ZM35.7969 138.506C35.2865 138.506 34.8581 138.693 34.5117 139.066C34.1654 139.436 33.9512 139.955 33.8691 140.625H37.5742V140.529C37.5378 139.887 37.3646 139.39 37.0547 139.039C36.7448 138.684 36.3255 138.506 35.7969 138.506ZM41.5049 137.604L41.5459 138.533C42.111 137.822 42.8493 137.467 43.7607 137.467C45.3239 137.467 46.1123 138.349 46.126 140.112V145H44.8613V140.105C44.8568 139.572 44.7337 139.178 44.4922 138.923C44.2552 138.668 43.8838 138.54 43.3779 138.54C42.9678 138.54 42.6077 138.649 42.2979 138.868C41.988 139.087 41.7464 139.374 41.5732 139.729V145H40.3086V137.604H41.5049ZM49.749 135.812V137.604H51.1299V138.581H49.749V143.168C49.749 143.464 49.8105 143.688 49.9336 143.838C50.0566 143.984 50.2663 144.057 50.5625 144.057C50.7083 144.057 50.9089 144.029 51.1641 143.975V145C50.8314 145.091 50.5078 145.137 50.1934 145.137C49.6283 145.137 49.2021 144.966 48.915 144.624C48.6279 144.282 48.4844 143.797 48.4844 143.168V138.581H47.1377V137.604H48.4844V135.812H49.749ZM55.6826 145.137C54.68 145.137 53.8643 144.809 53.2354 144.152C52.6064 143.492 52.292 142.61 52.292 141.507V141.274C52.292 140.541 52.431 139.887 52.709 139.312C52.9915 138.734 53.3835 138.283 53.8848 137.959C54.3906 137.631 54.9375 137.467 55.5254 137.467C56.487 137.467 57.2344 137.784 57.7676 138.417C58.3008 139.05 58.5674 139.957 58.5674 141.138V141.664H53.5566C53.5749 142.393 53.7868 142.983 54.1924 143.435C54.6025 143.881 55.1221 144.104 55.751 144.104C56.1976 144.104 56.5758 144.013 56.8857 143.831C57.1956 143.649 57.4668 143.407 57.6992 143.106L58.4717 143.708C57.8519 144.66 56.9222 145.137 55.6826 145.137ZM55.5254 138.506C55.015 138.506 54.5866 138.693 54.2402 139.066C53.8939 139.436 53.6797 139.955 53.5977 140.625H57.3027V140.529C57.2663 139.887 57.0931 139.39 56.7832 139.039C56.4733 138.684 56.054 138.506 55.5254 138.506ZM65.0205 141.104V145H63.708V135.047H67.3789C68.4681 135.047 69.3203 135.325 69.9355 135.881C70.5553 136.437 70.8652 137.173 70.8652 138.089C70.8652 139.055 70.5622 139.8 69.9561 140.324C69.3545 140.844 68.4909 141.104 67.3652 141.104H65.0205ZM65.0205 140.03H67.3789C68.0807 140.03 68.6185 139.866 68.9922 139.538C69.3659 139.205 69.5527 138.727 69.5527 138.103C69.5527 137.51 69.3659 137.036 68.9922 136.681C68.6185 136.325 68.1058 136.141 67.4541 136.127H65.0205V140.03ZM70.1543 144.337C70.1543 144.118 70.2181 143.936 70.3457 143.79C70.4779 143.644 70.6738 143.571 70.9336 143.571C71.1934 143.571 71.3893 143.644 71.5215 143.79C71.6582 143.936 71.7266 144.118 71.7266 144.337C71.7266 144.547 71.6582 144.722 71.5215 144.863C71.3893 145.005 71.1934 145.075 70.9336 145.075C70.6738 145.075 70.4779 145.005 70.3457 144.863C70.2181 144.722 70.1543 144.547 70.1543 144.337ZM79.5059 140.604H75.3291V145H74.0166V135.047H80.1826V136.127H75.3291V139.531H79.5059V140.604Z" fill="#10A9BC"/>
<path d="M8 177.5H89.6934C93.8356 177.5 97.1934 180.858 97.1934 185V212.936C97.1934 217.078 93.8356 220.436 89.6934 220.436H8C3.85787 220.436 0.5 217.078 0.5 212.936V185C0.5 180.858 3.85787 177.5 8 177.5Z" fill="white" stroke="white"/>
<path d="M24.4766 198.842C24.3535 199.895 23.9639 200.708 23.3076 201.282C22.6559 201.852 21.7878 202.137 20.7031 202.137C19.5273 202.137 18.584 201.715 17.873 200.872C17.1667 200.029 16.8135 198.901 16.8135 197.488V196.531C16.8135 195.606 16.9775 194.793 17.3057 194.091C17.6383 193.389 18.1077 192.851 18.7139 192.478C19.32 192.099 20.0218 191.91 20.8193 191.91C21.8766 191.91 22.7243 192.206 23.3623 192.799C24.0003 193.387 24.3717 194.202 24.4766 195.246H23.1572C23.0433 194.453 22.7949 193.879 22.4121 193.523C22.0339 193.168 21.5029 192.99 20.8193 192.99C19.9808 192.99 19.3223 193.3 18.8438 193.92C18.3698 194.54 18.1328 195.422 18.1328 196.565V197.529C18.1328 198.609 18.3584 199.468 18.8096 200.106C19.2607 200.744 19.8919 201.063 20.7031 201.063C21.4323 201.063 21.9906 200.899 22.3779 200.571C22.7699 200.239 23.0296 199.662 23.1572 198.842H24.4766ZM27.4502 202H26.1855V191.5H27.4502V202ZM30.8545 202H29.5898V194.604H30.8545V202ZM29.4873 192.642C29.4873 192.437 29.5488 192.263 29.6719 192.122C29.7995 191.981 29.9863 191.91 30.2324 191.91C30.4785 191.91 30.6654 191.981 30.793 192.122C30.9206 192.263 30.9844 192.437 30.9844 192.642C30.9844 192.847 30.9206 193.018 30.793 193.154C30.6654 193.291 30.4785 193.359 30.2324 193.359C29.9863 193.359 29.7995 193.291 29.6719 193.154C29.5488 193.018 29.4873 192.847 29.4873 192.642ZM35.9541 202.137C34.9515 202.137 34.1357 201.809 33.5068 201.152C32.8779 200.492 32.5635 199.61 32.5635 198.507V198.274C32.5635 197.541 32.7025 196.887 32.9805 196.312C33.263 195.734 33.6549 195.283 34.1562 194.959C34.6621 194.631 35.209 194.467 35.7969 194.467C36.7585 194.467 37.5059 194.784 38.0391 195.417C38.5723 196.05 38.8389 196.957 38.8389 198.138V198.664H33.8281C33.8464 199.393 34.0583 199.983 34.4639 200.435C34.874 200.881 35.3936 201.104 36.0225 201.104C36.4691 201.104 36.8473 201.013 37.1572 200.831C37.4671 200.649 37.7383 200.407 37.9707 200.106L38.7432 200.708C38.1234 201.66 37.1937 202.137 35.9541 202.137ZM35.7969 195.506C35.2865 195.506 34.8581 195.693 34.5117 196.066C34.1654 196.436 33.9512 196.955 33.8691 197.625H37.5742V197.529C37.5378 196.887 37.3646 196.39 37.0547 196.039C36.7448 195.684 36.3255 195.506 35.7969 195.506ZM41.5049 194.604L41.5459 195.533C42.111 194.822 42.8493 194.467 43.7607 194.467C45.3239 194.467 46.1123 195.349 46.126 197.112V202H44.8613V197.105C44.8568 196.572 44.7337 196.178 44.4922 195.923C44.2552 195.668 43.8838 195.54 43.3779 195.54C42.9678 195.54 42.6077 195.649 42.2979 195.868C41.988 196.087 41.7464 196.374 41.5732 196.729V202H40.3086V194.604H41.5049ZM49.749 192.812V194.604H51.1299V195.581H49.749V200.168C49.749 200.464 49.8105 200.688 49.9336 200.838C50.0566 200.984 50.2663 201.057 50.5625 201.057C50.7083 201.057 50.9089 201.029 51.1641 200.975V202C50.8314 202.091 50.5078 202.137 50.1934 202.137C49.6283 202.137 49.2021 201.966 48.915 201.624C48.6279 201.282 48.4844 200.797 48.4844 200.168V195.581H47.1377V194.604H48.4844V192.812H49.749ZM55.6826 202.137C54.68 202.137 53.8643 201.809 53.2354 201.152C52.6064 200.492 52.292 199.61 52.292 198.507V198.274C52.292 197.541 52.431 196.887 52.709 196.312C52.9915 195.734 53.3835 195.283 53.8848 194.959C54.3906 194.631 54.9375 194.467 55.5254 194.467C56.487 194.467 57.2344 194.784 57.7676 195.417C58.3008 196.05 58.5674 196.957 58.5674 198.138V198.664H53.5566C53.5749 199.393 53.7868 199.983 54.1924 200.435C54.6025 200.881 55.1221 201.104 55.751 201.104C56.1976 201.104 56.5758 201.013 56.8857 200.831C57.1956 200.649 57.4668 200.407 57.6992 200.106L58.4717 200.708C57.8519 201.66 56.9222 202.137 55.6826 202.137ZM55.5254 195.506C55.015 195.506 54.5866 195.693 54.2402 196.066C53.8939 196.436 53.6797 196.955 53.5977 197.625H57.3027V197.529C57.2663 196.887 57.0931 196.39 56.7832 196.039C56.4733 195.684 56.054 195.506 55.5254 195.506ZM65.0205 198.104V202H63.708V192.047H67.3789C68.4681 192.047 69.3203 192.325 69.9355 192.881C70.5553 193.437 70.8652 194.173 70.8652 195.089C70.8652 196.055 70.5622 196.8 69.9561 197.324C69.3545 197.844 68.4909 198.104 67.3652 198.104H65.0205ZM65.0205 197.03H67.3789C68.0807 197.03 68.6185 196.866 68.9922 196.538C69.3659 196.205 69.5527 195.727 69.5527 195.103C69.5527 194.51 69.3659 194.036 68.9922 193.681C68.6185 193.325 68.1058 193.141 67.4541 193.127H65.0205V197.03ZM70.1543 201.337C70.1543 201.118 70.2181 200.936 70.3457 200.79C70.4779 200.644 70.6738 200.571 70.9336 200.571C71.1934 200.571 71.3893 200.644 71.5215 200.79C71.6582 200.936 71.7266 201.118 71.7266 201.337C71.7266 201.547 71.6582 201.722 71.5215 201.863C71.3893 202.005 71.1934 202.075 70.9336 202.075C70.6738 202.075 70.4779 202.005 70.3457 201.863C70.2181 201.722 70.1543 201.547 70.1543 201.337ZM79.5059 197.604H75.3291V202H74.0166V192.047H80.1826V193.127H75.3291V196.531H79.5059V197.604Z" fill="#10A9BC"/>
<path d="M209 117.5H290.693C294.836 117.5 298.193 120.858 298.193 125V152.936C298.193 157.078 294.836 160.436 290.693 160.436H209C204.858 160.436 201.5 157.078 201.5 152.936V125C201.5 120.858 204.858 117.5 209 117.5Z" fill="white" stroke="white"/>
<path d="M226.963 131.563C225.837 131.24 225.017 130.843 224.502 130.374C223.992 129.9 223.736 129.317 223.736 128.624C223.736 127.84 224.049 127.193 224.673 126.683C225.302 126.168 226.118 125.91 227.12 125.91C227.804 125.91 228.412 126.042 228.945 126.307C229.483 126.571 229.898 126.936 230.189 127.4C230.486 127.865 230.634 128.373 230.634 128.925H229.314C229.314 128.323 229.123 127.852 228.74 127.51C228.357 127.163 227.817 126.99 227.12 126.99C226.473 126.99 225.967 127.134 225.603 127.421C225.243 127.703 225.062 128.098 225.062 128.604C225.062 129.009 225.233 129.353 225.575 129.636C225.922 129.914 226.507 130.169 227.332 130.401C228.161 130.634 228.809 130.891 229.273 131.174C229.743 131.452 230.089 131.778 230.312 132.151C230.54 132.525 230.654 132.965 230.654 133.471C230.654 134.277 230.34 134.924 229.711 135.412C229.082 135.895 228.241 136.137 227.188 136.137C226.505 136.137 225.867 136.007 225.274 135.747C224.682 135.483 224.224 135.123 223.9 134.667C223.581 134.211 223.422 133.694 223.422 133.115H224.741C224.741 133.717 224.962 134.193 225.404 134.544C225.851 134.89 226.446 135.063 227.188 135.063C227.881 135.063 228.412 134.922 228.781 134.64C229.15 134.357 229.335 133.972 229.335 133.484C229.335 132.997 229.164 132.621 228.822 132.356C228.48 132.088 227.861 131.823 226.963 131.563ZM231.81 132.233C231.81 131.509 231.951 130.857 232.233 130.278C232.521 129.7 232.917 129.253 233.423 128.938C233.933 128.624 234.514 128.467 235.166 128.467C236.173 128.467 236.987 128.815 237.606 129.513C238.231 130.21 238.543 131.137 238.543 132.295V132.384C238.543 133.104 238.404 133.751 238.126 134.325C237.853 134.895 237.458 135.339 236.943 135.658C236.433 135.977 235.845 136.137 235.18 136.137C234.177 136.137 233.364 135.788 232.739 135.091C232.119 134.394 231.81 133.471 231.81 132.322V132.233ZM233.081 132.384C233.081 133.204 233.27 133.863 233.648 134.359C234.031 134.856 234.542 135.104 235.18 135.104C235.822 135.104 236.333 134.854 236.711 134.353C237.089 133.847 237.278 133.14 237.278 132.233C237.278 131.422 237.085 130.766 236.697 130.265C236.314 129.759 235.804 129.506 235.166 129.506C234.542 129.506 234.038 129.754 233.655 130.251C233.272 130.748 233.081 131.459 233.081 132.384ZM241.503 136H240.238V125.5H241.503V136ZM244.907 136H243.643V128.604H244.907V136ZM243.54 126.642C243.54 126.437 243.602 126.263 243.725 126.122C243.852 125.981 244.039 125.91 244.285 125.91C244.531 125.91 244.718 125.981 244.846 126.122C244.973 126.263 245.037 126.437 245.037 126.642C245.037 126.847 244.973 127.018 244.846 127.154C244.718 127.291 244.531 127.359 244.285 127.359C244.039 127.359 243.852 127.291 243.725 127.154C243.602 127.018 243.54 126.847 243.54 126.642ZM249.904 135.104C250.355 135.104 250.75 134.968 251.087 134.694C251.424 134.421 251.611 134.079 251.647 133.669H252.844C252.821 134.093 252.675 134.496 252.406 134.879C252.137 135.262 251.777 135.567 251.326 135.795C250.88 136.023 250.406 136.137 249.904 136.137C248.897 136.137 248.095 135.802 247.498 135.132C246.906 134.457 246.609 133.537 246.609 132.37V132.158C246.609 131.438 246.742 130.798 247.006 130.237C247.27 129.677 247.648 129.242 248.141 128.932C248.637 128.622 249.223 128.467 249.897 128.467C250.727 128.467 251.415 128.715 251.962 129.212C252.513 129.709 252.807 130.354 252.844 131.146H251.647C251.611 130.668 251.429 130.276 251.101 129.971C250.777 129.661 250.376 129.506 249.897 129.506C249.255 129.506 248.756 129.738 248.4 130.203C248.049 130.663 247.874 131.331 247.874 132.206V132.445C247.874 133.298 248.049 133.954 248.4 134.414C248.751 134.874 249.253 135.104 249.904 135.104ZM255.64 136H254.375V128.604H255.64V136ZM254.272 126.642C254.272 126.437 254.334 126.263 254.457 126.122C254.585 125.981 254.771 125.91 255.018 125.91C255.264 125.91 255.451 125.981 255.578 126.122C255.706 126.263 255.77 126.437 255.77 126.642C255.77 126.847 255.706 127.018 255.578 127.154C255.451 127.291 255.264 127.359 255.018 127.359C254.771 127.359 254.585 127.291 254.457 127.154C254.334 127.018 254.272 126.847 254.272 126.642ZM259.386 126.812V128.604H260.767V129.581H259.386V134.168C259.386 134.464 259.447 134.688 259.57 134.838C259.693 134.984 259.903 135.057 260.199 135.057C260.345 135.057 260.546 135.029 260.801 134.975V136C260.468 136.091 260.145 136.137 259.83 136.137C259.265 136.137 258.839 135.966 258.552 135.624C258.265 135.282 258.121 134.797 258.121 134.168V129.581H256.774V128.604H258.121V126.812H259.386ZM266.816 136C266.743 135.854 266.684 135.594 266.639 135.221C266.051 135.831 265.349 136.137 264.533 136.137C263.804 136.137 263.205 135.932 262.735 135.521C262.271 135.107 262.038 134.583 262.038 133.949C262.038 133.179 262.33 132.582 262.913 132.158C263.501 131.73 264.326 131.516 265.388 131.516H266.618V130.935C266.618 130.493 266.486 130.142 266.222 129.882C265.957 129.618 265.568 129.485 265.053 129.485C264.602 129.485 264.223 129.599 263.918 129.827C263.613 130.055 263.46 130.331 263.46 130.654H262.188C262.188 130.285 262.318 129.93 262.578 129.588C262.842 129.242 263.198 128.968 263.645 128.768C264.096 128.567 264.59 128.467 265.128 128.467C265.98 128.467 266.648 128.681 267.131 129.109C267.614 129.533 267.865 130.119 267.883 130.866V134.271C267.883 134.95 267.969 135.49 268.143 135.891V136H266.816ZM264.718 135.036C265.114 135.036 265.49 134.934 265.846 134.729C266.201 134.523 266.459 134.257 266.618 133.929V132.411H265.627C264.077 132.411 263.303 132.865 263.303 133.771C263.303 134.168 263.435 134.478 263.699 134.701C263.964 134.924 264.303 135.036 264.718 135.036ZM273.44 129.738C273.249 129.706 273.042 129.69 272.818 129.69C271.989 129.69 271.426 130.044 271.13 130.75V136H269.865V128.604H271.096L271.116 129.458C271.531 128.797 272.119 128.467 272.88 128.467C273.126 128.467 273.313 128.499 273.44 128.562V129.738ZM230.155 148.842C230.032 149.895 229.643 150.708 228.986 151.282C228.335 151.852 227.466 152.137 226.382 152.137C225.206 152.137 224.263 151.715 223.552 150.872C222.845 150.029 222.492 148.901 222.492 147.488V146.531C222.492 145.606 222.656 144.793 222.984 144.091C223.317 143.389 223.786 142.851 224.393 142.478C224.999 142.099 225.701 141.91 226.498 141.91C227.555 141.91 228.403 142.206 229.041 142.799C229.679 143.387 230.05 144.202 230.155 145.246H228.836C228.722 144.453 228.474 143.879 228.091 143.523C227.713 143.168 227.182 142.99 226.498 142.99C225.66 142.99 225.001 143.3 224.522 143.92C224.049 144.54 223.812 145.422 223.812 146.565V147.529C223.812 148.609 224.037 149.468 224.488 150.106C224.939 150.744 225.571 151.063 226.382 151.063C227.111 151.063 227.669 150.899 228.057 150.571C228.449 150.239 228.708 149.662 228.836 148.842H230.155ZM236.321 152C236.248 151.854 236.189 151.594 236.144 151.221C235.556 151.831 234.854 152.137 234.038 152.137C233.309 152.137 232.71 151.932 232.24 151.521C231.775 151.107 231.543 150.583 231.543 149.949C231.543 149.179 231.835 148.582 232.418 148.158C233.006 147.73 233.831 147.516 234.893 147.516H236.123V146.935C236.123 146.493 235.991 146.142 235.727 145.882C235.462 145.618 235.073 145.485 234.558 145.485C234.106 145.485 233.728 145.599 233.423 145.827C233.118 146.055 232.965 146.331 232.965 146.654H231.693C231.693 146.285 231.823 145.93 232.083 145.588C232.347 145.242 232.703 144.968 233.149 144.768C233.601 144.567 234.095 144.467 234.633 144.467C235.485 144.467 236.153 144.681 236.636 145.109C237.119 145.533 237.369 146.119 237.388 146.866V150.271C237.388 150.95 237.474 151.49 237.647 151.891V152H236.321ZM234.223 151.036C234.619 151.036 234.995 150.934 235.351 150.729C235.706 150.523 235.964 150.257 236.123 149.929V148.411H235.132C233.582 148.411 232.808 148.865 232.808 149.771C232.808 150.168 232.94 150.478 233.204 150.701C233.468 150.924 233.808 151.036 234.223 151.036ZM239.062 148.24C239.062 147.105 239.331 146.194 239.869 145.506C240.407 144.813 241.111 144.467 241.981 144.467C242.847 144.467 243.533 144.763 244.039 145.355V141.5H245.304V152H244.142L244.08 151.207C243.574 151.827 242.87 152.137 241.968 152.137C241.111 152.137 240.411 151.786 239.869 151.084C239.331 150.382 239.062 149.466 239.062 148.336V148.24ZM240.327 148.384C240.327 149.222 240.5 149.879 240.847 150.353C241.193 150.826 241.672 151.063 242.282 151.063C243.084 151.063 243.67 150.703 244.039 149.983V146.586C243.661 145.889 243.08 145.54 242.296 145.54C241.676 145.54 241.193 145.779 240.847 146.258C240.5 146.736 240.327 147.445 240.327 148.384ZM251.839 152C251.766 151.854 251.707 151.594 251.661 151.221C251.073 151.831 250.371 152.137 249.556 152.137C248.826 152.137 248.227 151.932 247.758 151.521C247.293 151.107 247.061 150.583 247.061 149.949C247.061 149.179 247.352 148.582 247.936 148.158C248.523 147.73 249.348 147.516 250.41 147.516H251.641V146.935C251.641 146.493 251.508 146.142 251.244 145.882C250.98 145.618 250.59 145.485 250.075 145.485C249.624 145.485 249.246 145.599 248.94 145.827C248.635 146.055 248.482 146.331 248.482 146.654H247.211C247.211 146.285 247.341 145.93 247.601 145.588C247.865 145.242 248.22 144.968 248.667 144.768C249.118 144.567 249.613 144.467 250.15 144.467C251.003 144.467 251.67 144.681 252.153 145.109C252.636 145.533 252.887 146.119 252.905 146.866V150.271C252.905 150.95 252.992 151.49 253.165 151.891V152H251.839ZM249.74 151.036C250.137 151.036 250.513 150.934 250.868 150.729C251.224 150.523 251.481 150.257 251.641 149.929V148.411H250.649C249.1 148.411 248.325 148.865 248.325 149.771C248.325 150.168 248.457 150.478 248.722 150.701C248.986 150.924 249.326 151.036 249.74 151.036ZM259.194 150.038C259.194 149.696 259.064 149.432 258.805 149.245C258.549 149.054 258.101 148.89 257.458 148.753C256.82 148.616 256.312 148.452 255.934 148.261C255.56 148.069 255.282 147.841 255.1 147.577C254.922 147.313 254.833 146.998 254.833 146.634C254.833 146.028 255.088 145.515 255.599 145.096C256.114 144.676 256.77 144.467 257.567 144.467C258.406 144.467 259.085 144.683 259.604 145.116C260.129 145.549 260.391 146.103 260.391 146.777H259.119C259.119 146.431 258.971 146.132 258.675 145.882C258.383 145.631 258.014 145.506 257.567 145.506C257.107 145.506 256.747 145.606 256.487 145.807C256.228 146.007 256.098 146.269 256.098 146.593C256.098 146.898 256.218 147.128 256.46 147.283C256.701 147.438 257.137 147.586 257.766 147.728C258.399 147.869 258.912 148.037 259.304 148.233C259.696 148.429 259.985 148.666 260.172 148.944C260.363 149.218 260.459 149.553 260.459 149.949C260.459 150.61 260.195 151.141 259.666 151.542C259.137 151.938 258.451 152.137 257.608 152.137C257.016 152.137 256.492 152.032 256.036 151.822C255.58 151.613 255.223 151.321 254.963 150.947C254.708 150.569 254.58 150.161 254.58 149.724H255.845C255.868 150.147 256.036 150.485 256.351 150.735C256.67 150.981 257.089 151.104 257.608 151.104C258.087 151.104 258.47 151.009 258.757 150.817C259.049 150.621 259.194 150.362 259.194 150.038ZM263.822 142.812V144.604H265.203V145.581H263.822V150.168C263.822 150.464 263.884 150.688 264.007 150.838C264.13 150.984 264.34 151.057 264.636 151.057C264.782 151.057 264.982 151.029 265.237 150.975V152C264.905 152.091 264.581 152.137 264.267 152.137C263.701 152.137 263.275 151.966 262.988 151.624C262.701 151.282 262.558 150.797 262.558 150.168V145.581H261.211V144.604H262.558V142.812H263.822ZM270.262 145.738C270.07 145.706 269.863 145.69 269.64 145.69C268.81 145.69 268.247 146.044 267.951 146.75V152H266.687V144.604H267.917L267.938 145.458C268.352 144.797 268.94 144.467 269.701 144.467C269.947 144.467 270.134 144.499 270.262 144.562V145.738ZM270.959 148.233C270.959 147.509 271.1 146.857 271.383 146.278C271.67 145.7 272.066 145.253 272.572 144.938C273.083 144.624 273.664 144.467 274.315 144.467C275.323 144.467 276.136 144.815 276.756 145.513C277.38 146.21 277.692 147.137 277.692 148.295V148.384C277.692 149.104 277.553 149.751 277.275 150.325C277.002 150.895 276.608 151.339 276.093 151.658C275.582 151.977 274.994 152.137 274.329 152.137C273.326 152.137 272.513 151.788 271.889 151.091C271.269 150.394 270.959 149.471 270.959 148.322V148.233ZM272.23 148.384C272.23 149.204 272.42 149.863 272.798 150.359C273.181 150.856 273.691 151.104 274.329 151.104C274.972 151.104 275.482 150.854 275.86 150.353C276.239 149.847 276.428 149.14 276.428 148.233C276.428 147.422 276.234 146.766 275.847 146.265C275.464 145.759 274.953 145.506 274.315 145.506C273.691 145.506 273.188 145.754 272.805 146.251C272.422 146.748 272.23 147.459 272.23 148.384Z" fill="#10A9BC"/>
<circle cx="154.153" cy="53.922" r="6.9781" fill="#0EE4FF"/>
<rect x="154.153" y="61.5342" width="0.634373" height="38.6968" fill="#FFFBFB"/>
<rect x="48.8472" y="100.231" width="105.306" height="0.634373" fill="white"/>
<rect x="154.153" y="100.231" width="105.306" height="0.634373" fill="white"/>
<path d="M48.8472 100.231H49.4815V117.359H48.8472V100.231Z" fill="white"/>
<path d="M48.2129 160.496H48.8473V176.355H48.2129V160.496Z" fill="white"/>
<rect x="259.459" y="100.231" width="0.634373" height="15.8593" fill="white"/>
</svg>
