<svg id="Camada_1" data-name="Camada 1" xmlns="http://www.w3.org/2000/svg" xmlns:xlink="http://www.w3.org/1999/xlink" viewBox="0 0 1366 768"><defs><style>.cls-1{fill:#1e079d;}.cls-2,.cls-7{fill:none;}.cls-3{opacity:0.37;}.cls-4{fill:#87aedd;}.cls-5{fill:#58affb;}.cls-6{fill:#003783;}.cls-7{stroke:#16c5dc;stroke-miterlimit:10;stroke-width:1.99px;}.cls-8{fill:#ff4272;}.cls-9{fill:#212973;}.cls-10{fill:#7baeff;}.cls-11{opacity:0.53;}.cls-12{isolation:isolate;}.cls-13{fill:#ce7c56;}.cls-14{fill:#ffbe3d;}.cls-15{fill:#e2a029;}.cls-16{fill:#2670d4;}.cls-17,.cls-53{fill:#2689fd;}.cls-18,.cls-44{fill:#cc096a;}.cls-19{fill:#ee2c6a;}.cls-20{fill:#5b5bd6;}.cls-21{fill:#b391ff;}.cls-22{fill:#7974f5;}.cls-23{fill:#382747;}.cls-24{fill:#535e6d;}.cls-25{fill:#636f82;}.cls-26{fill:#e2edff;}.cls-27{fill:#e16b40;}.cls-28{fill:#455baf;}.cls-29{fill:#e1e8f2;}.cls-30{fill:#ff8654;}.cls-31{fill:#ff9f75;}.cls-32{fill:#cfdae4;}.cls-33{fill:#00a5ff;}.cls-34{fill:#4d2c63;}.cls-35{fill:#ee428c;}.cls-36{fill:#00265a;}.cls-37{fill:#002f71;}.cls-38{fill:#002a65;}.cls-39{fill:#00357f;}.cls-40{fill:#001e46;}.cls-41{fill:#0046a6;}.cls-42{fill:#4da5dc;}.cls-43{fill:#5155d4;}.cls-44{opacity:0.76;}.cls-45{fill:#eaeeee;}.cls-46{fill:#adcdfc;}.cls-47{fill:#c7d8f2;}.cls-48{fill:#ea9273;}.cls-49{fill:#fff;}.cls-50{fill:#94a3c0;}.cls-51{fill:#616d7f;}.cls-52{fill:#6d7b93;}.cls-53{opacity:0.54;}.cls-54{fill:#93513f;}.cls-55{fill:#a55d46;}.cls-56{fill:#ff5668;}.cls-57{fill:#16c5dc;}.cls-58{fill:#f2f8fd;}.cls-59{fill:#7cccff;}.cls-60{fill:#bb4f23;}.cls-61{clip-path:url(#clip-path);}.cls-62{fill:#88630a;}.cls-63{clip-path:url(#clip-path-2);}.cls-64{fill:#113c7a;}.cls-65{clip-path:url(#clip-path-3);}.cls-66{fill:#d4d9df;}.cls-67{clip-path:url(#clip-path-4);}</style><clipPath id="clip-path"><path class="cls-1" d="M605,302l0,2.85c0-1-.64,1.65-1.91.92v-6.28C604.37,300.24,605,301.05,605,302Z"/></clipPath><clipPath id="clip-path-2"><path class="cls-2" d="M607.23,305.61v4.26a17.52,17.52,0,0,1-8.67,2.08l0-4.26A17.56,17.56,0,0,0,607.23,305.61Z"/></clipPath><clipPath id="clip-path-3"><path class="cls-2" d="M586.24,304.62l0-6.44c0,1.84,1.2,3.67,3.62,5.07a17.87,17.87,0,0,0,8.69,2.08l0,6.62a17.76,17.76,0,0,1-8.69-2.08C587.44,308.48,586.24,306.45,586.24,304.62Z"/></clipPath><clipPath id="clip-path-4"><path class="cls-2" d="M685.45,248.73v-1.07a1.84,1.84,0,0,0,.18.77v1.07A1.84,1.84,0,0,1,685.45,248.73Z"/></clipPath></defs><title>Prancheta 1</title><g class="cls-3"><path class="cls-4" d="M736.29,314.48c44.22,25.53,44.45,66.92.52,92.45s-115.39,25.53-159.61,0-44.44-66.92-.52-92.45S692.07,289,736.29,314.48Z"/></g><g class="cls-3"><path class="cls-4" d="M778.61,402.33c23,13.26,23.09,34.76.27,48s-59.93,13.26-82.9,0-23.08-34.76-.26-48S755.65,389.07,778.61,402.33Z"/></g><g class="cls-3"><path class="cls-4" d="M615.52,290c23,13.26,23.09,34.75.27,48s-59.93,13.27-82.9,0-23.08-34.76-.26-48S592.56,276.7,615.52,290Z"/></g><path class="cls-5" d="M760.9,83.19l-.19-.1-.24-.13-.23-.11-.24-.1-.23-.09h-.06l-.17,0-.24-.07-.24,0-.25,0-.18,0h-.36l-.3,0-.33,0h0a2.85,2.85,0,0,0-.39.11,2.81,2.81,0,0,0-.47.21L752.92,85a2.72,2.72,0,0,1,.85-.32h0a3.53,3.53,0,0,1,1,0h0a4.9,4.9,0,0,1,1.07.23h0a6.34,6.34,0,0,1,1.17.54l107.5,62.07,3.85-2.24Z"/><path class="cls-5" d="M874.19,155c0-.09,0-.19,0-.28a2.83,2.83,0,0,0,0-.29l0-.28c0-.1,0-.19,0-.29h0c0-.09,0-.18,0-.28s0-.2-.07-.3,0-.2-.07-.3a2.81,2.81,0,0,0-.08-.31,2.17,2.17,0,0,0-.07-.24v0l0,0-.09-.3-.11-.29c0-.1-.07-.19-.1-.29l-.12-.28-.09-.21v0l0-.05-.12-.28-.15-.3-.18-.35-.21-.37,0-.06,0-.08c-.13-.23-.28-.46-.43-.69l-.36-.52-.26-.34-.23-.27-.22-.27-.23-.25,0,0,0,0-.17-.18-.25-.25-.25-.23-.26-.23-.13-.11,0,0-.1-.08-.25-.19a2,2,0,0,0-.26-.18l-.24-.17-.25-.15-.06,0-3.85,2.24a7.28,7.28,0,0,1,1.16.8l0,0a9.91,9.91,0,0,1,1.06,1h0a14,14,0,0,1,1.82,2.46l0,.07a12.27,12.27,0,0,1,.69,1.35h0a13,13,0,0,1,.53,1.43v0a11,11,0,0,1,.34,1.43h0a9.67,9.67,0,0,1,.11,1.41L870.13,231a6.1,6.1,0,0,1-.12,1.25v0a4.88,4.88,0,0,1-.33,1v0a2.88,2.88,0,0,1-.44.67,1.56,1.56,0,0,1-.16.2,2.86,2.86,0,0,1-.63.53l3.85-2.24a3.11,3.11,0,0,0,.63-.52,1.56,1.56,0,0,0,.16-.2,2.65,2.65,0,0,0,.21-.26c.08-.13.15-.26.22-.4v0h0l.12-.3c0-.1.07-.2.1-.3s.06-.2.08-.3l0-.13v0l0-.12c0-.1,0-.19,0-.28l0-.28c0-.09,0-.18,0-.28a2.53,2.53,0,0,0,0-.28h0l.21-73.46Z"/><path class="cls-6" d="M864.55,147.5a12.73,12.73,0,0,1,5.79,10L870.13,231c0,3.69-2.61,5.17-5.82,3.32L756.8,172.22a12.73,12.73,0,0,1-5.79-10l.21-73.46c0-3.68,2.62-5.17,5.83-3.31Z"/><polyline class="cls-7" points="759.19 156.99 767.4 152.8 772.78 161.48 778.77 167.58 784.76 163.96 797.58 159.83 803.37 168.1 809.15 172.85 814.42 180.6 821.55 165.62 830.23 169.75 834.78 166.03 844.18 168.51 858.13 167.27"/><path class="cls-8" d="M857.81,163.2c-2.14-1.24-3.88-.24-3.89,2.21a8.47,8.47,0,0,0,3.86,6.68c2.14,1.24,3.87.25,3.88-2.21A8.51,8.51,0,0,0,857.81,163.2Z"/><path class="cls-9" d="M857.8,165.63c-1-.55-1.76-.1-1.76,1a3.85,3.85,0,0,0,1.75,3c1,.55,1.75.11,1.75-1A3.89,3.89,0,0,0,857.8,165.63Z"/><path class="cls-10" d="M840.38,189.11v1a.75.75,0,0,1-1.13.65l-4.63-2.67a.74.74,0,0,1-.37-.65v-1a.75.75,0,0,1,1.12-.65l4.63,2.67A.74.74,0,0,1,840.38,189.11Z"/><path class="cls-10" d="M855.05,202.38v1a.76.76,0,0,1-1.13.65L834.62,193a.74.74,0,0,1-.37-.65v-1a.75.75,0,0,1,1.12-.65l19.3,11.06A.76.76,0,0,1,855.05,202.38Z"/><g class="cls-11"><path class="cls-10" d="M847.09,207.58v1a.75.75,0,0,1-1.12.65l-11.34-6.5a.76.76,0,0,1-.38-.66v-1a.75.75,0,0,1,1.12-.65l11.34,6.5A.74.74,0,0,1,847.09,207.58Z"/></g><path class="cls-10" d="M852.05,205.55v1a.75.75,0,0,1-1.12.65l-16.3-9.34a.76.76,0,0,1-.38-.66v-1a.75.75,0,0,1,1.12-.65l16.31,9.35A.74.74,0,0,1,852.05,205.55Z"/><g class="cls-12"><polygon class="cls-13" points="773.4 128.59 776.24 126.94 776.22 135.26 773.38 136.91 773.4 128.59"/><polygon class="cls-14" points="766.53 124.63 769.38 122.97 776.24 126.94 773.4 128.59 766.53 124.63"/><polygon class="cls-15" points="773.4 128.59 773.38 136.91 766.51 132.95 766.53 124.63 773.4 128.59"/></g><g class="cls-12"><polygon class="cls-16" points="784.28 127.42 787.12 125.77 787.08 141.53 784.24 143.18 784.28 127.42"/><polygon class="cls-5" points="777.42 123.46 780.26 121.81 787.12 125.77 784.28 127.42 777.42 123.46"/><polygon class="cls-17" points="784.28 127.42 784.24 143.18 777.38 139.22 777.42 123.46 784.28 127.42"/></g><g class="cls-12"><polygon class="cls-18" points="795.16 127.34 798 125.69 797.94 147.8 795.1 149.46 795.16 127.34"/><polygon class="cls-19" points="788.3 123.38 791.14 121.73 798 125.69 795.16 127.34 788.3 123.38"/><polygon class="cls-19" points="795.16 127.34 795.1 149.46 788.24 145.5 788.3 123.38 795.16 127.34"/></g><g class="cls-12"><polygon class="cls-20" points="806.04 127.91 808.88 126.26 808.8 154.07 805.96 155.73 806.04 127.91"/><polygon class="cls-21" points="799.18 123.95 802.02 122.3 808.88 126.26 806.04 127.91 799.18 123.95"/><polygon class="cls-22" points="806.04 127.91 805.96 155.73 799.1 151.77 799.18 123.95 806.04 127.91"/></g><path class="cls-23" d="M698.53,281.92s1.05,3.52-1.82,5.49a25,25,0,0,1-6.62,3.3c-2.33.9-4.48,4-3.4,6.1s6.1,2.51,9.33,1.62,3.76-3.77,6.82-4.85a11.19,11.19,0,0,0,5-3.23c.9-.89-1.54-9.07-1.54-9.07l-8.87,1"/><path class="cls-24" d="M695.71,192.77s-2.65,17.9-4.31,24.2-7.29,29.5-6.3,34.48,7.63,17.23,9.29,23.2,3,10.94,4.3,11.6,5.64,0,8.29-4,.33-1.65.33-1.65-1-9.95-2-13.26-5.3-14.26-5-17.9,7.29-22.21,12.27-30.83a108.59,108.59,0,0,0,8-17.57Z"/><path class="cls-23" d="M713.45,291.2a5.65,5.65,0,0,1-2.7,4.67c-2.87,2-3.41,3.23-5.74,4.12s-4.48,3.95-3.41,6.1,6.1,2.52,9.33,1.62,3.77-3.77,6.82-4.85a11.24,11.24,0,0,0,5-3.23c.89-.89.53-4.48.53-4.48l-10.94-3.59"/><path class="cls-25" d="M701.35,197.74s1,14.59,3,18.57,2.32,7,3.31,12.59,4.31,43.76,4,50.72-.33,14.92,0,15.91,6.63,3.65,11.94,0c0,0,1-8.28,1.65-17.9s.34-22.21,1.33-34.47,6-34.14,6-42.43C732.51,200.73,716.6,205.7,701.35,197.74Z"/><path class="cls-24" d="M701.35,197.74s.19,2.81.57,6.3a71.7,71.7,0,0,0,13.22,5.47c10.45,3,11.5,7,11.5,16.41s-3.94,18.9-3.45,28.34c.38,7.07.76,29.45-.74,41.93a10.79,10.79,0,0,0,1.11-.66s1-8.28,1.65-17.9.34-22.21,1.33-34.47,6-34.14,6-42.43C732.51,200.73,716.6,205.7,701.35,197.74Z"/><path class="cls-26" d="M687.78,146.9s13.74-11.37,16.54-11.64c3.35-.26,7.53.88,8.62,5.63a8.77,8.77,0,0,1-4,9.75c-2.52,1.39-28,14.57-31.94,14.55s-6.4-3.38-3.87-7.55S687.78,146.9,687.78,146.9Z"/><path class="cls-27" d="M712.86,133a1.3,1.3,0,0,1,0,.45c-.2,1-.84,3.62-1,4.72s1,2.93,3.8,3,7.72-.87,9.49-4.18a77.93,77.93,0,0,1,1-10Z"/><path class="cls-28" d="M724.5,133.68s13.52,10.7,14.75,14.1,1.06,12.69-2.14,18.73-3,31.81-4.27,36.21-13.33,5.21-20.68,3.41-19-8-16.69-16.31c3.47-12.33,2.4-27.72,2.12-31.64A67.74,67.74,0,0,1,700.44,138c.45-1.37,5.27-3.28,5.27-3.28S710.71,132.41,724.5,133.68Z"/><path class="cls-29" d="M725,135.49c-11.76-1.08-17.17.94-18.52,1.56a35.29,35.29,0,0,0,.17,8.35c.92,5.56,3.14,20.83,3.14,20.83s7.25-12.54,12-17.71c3.36-3.63,6.67-7.05,8.34-8.77C727.3,137.35,725,135.49,725,135.49Z"/><path class="cls-30" d="M712.86,133a1.3,1.3,0,0,1,0,.45c-.2,1-.84,3.62-1,4.72s1,2.93,3.8,3,7.72-.87,9.49-4.18a77.93,77.93,0,0,1,1-10Z"/><path class="cls-31" d="M703.75,114.26c.76-8.82,7.12-14.41,15.06-13.37,0,0,8.49,0,13,7s-.39,13.77-3.51,18c-1.33,1.75-2.32,3.1-3,4a11.58,11.58,0,0,1-.69.95l-.06.1h0A17.69,17.69,0,0,1,717.8,136c-3.28,1.34-7.34,1.17-9.73-.92S703,123.08,703.75,114.26Z"/><path class="cls-32" d="M708.11,148.51l5.24-4.64,4.19,7.34,4.23-2.67c-4.78,5.16-12,17.69-12,17.69s-1.85-12.74-2.87-19.18Z"/><path class="cls-33" d="M708.47,157.5l2.33-8.24-.35-2.83,2.9-2.56,2,3.56-2.33,2.13-.64,12.24c-1.59,2.57-2.66,4.43-2.66,4.43S709.16,162.18,708.47,157.5Z"/><path class="cls-13" d="M732.6,106.9a12.8,12.8,0,0,1,1,12.55c-3.19,7-7.21,10.46-8.33,10.45s-1.71-.2-1.56-1.07,1.12-3.83,1.12-3.83,4.61-1.26,4.16-4.29-2.2-3.34-4-2.23-1.87,2.54-2.81,3.81-.8,4.07-1.67,3.92-1.55-.9-1.76-2.28a5.91,5.91,0,0,1,1-4.94c1.41-1.9-.94-4.37.38-6.83a16.37,16.37,0,0,1,2.31-3.45s-.86,1.82-6.54,1.54-8.13.37-10.55-.67-2.32-4.17-1.1-5.48,4.44-2.36,8.1-4.32,6-1.46,10.85-1.06S733.21,103.43,732.6,106.9Z"/><path class="cls-13" d="M719.38,119.69s0,9.05-2.49,10.26-2.39-3.66-6.22-4.6-6.47-.7-6.36,1.13,1.06,8.22,4.47,9.72,8.65.71,11.1-.83,2.17-12.39,3.24-14.23S719.38,119.69,719.38,119.69Z"/><path class="cls-31" d="M677,165.19s-3.79,1.81-7.52-1.92-15.16-24.12-15.16-24.12a6.52,6.52,0,0,1,6-5.46s12.92,16.65,15.66,19.64S681.82,161.89,677,165.19Z"/><path class="cls-26" d="M733.43,172s-7.07-16.37-6.54-19.13c.68-3.29,3-7,7.82-6.7a8.77,8.77,0,0,1,8.25,6.53c.62,2.8,5.25,24.68,4.13,28.43s-5,5.2-8.34,1.6S733.43,172,733.43,172Z"/><path class="cls-31" d="M747.62,179.12s-1.1-4.05-6.36-4.44-31,4-31,4a6.52,6.52,0,0,0-.25,8.09s23.86-.87,27.91-.74S748.24,184.89,747.62,179.12Z"/><path class="cls-31" d="M704.66,176c-1.29-.56-5-2.2-5.73-2.38-.83.09-1.11,2.13.28,2.87s3.33,1.95,3.51,2.78-1.66,3-2.49,3.51-7.09,1.66-7.37,2.7,1.45,1.46,2.56,1.18a14.31,14.31,0,0,1,2.43-.34,2.26,2.26,0,0,0,1.24,1.1c1,.42,1.39.35,1.74.7a3.63,3.63,0,0,0,2.28.83c1.32.14,4-1.11,5.82-1.59s3.6-1,3.6-1l-1.61-6.61a1.54,1.54,0,0,0-.78-1C708.8,178.07,705.67,176.46,704.66,176Z"/><path class="cls-31" d="M660.33,133.69s-1.12-3.73-2.49-5.1a8.59,8.59,0,0,1-2.49-4c-.49-1.61.62-5.47-.49-5.47s-2.74,2.11-2.61,3.73,0,3.23-.38,3.61S647,124,646,123s-4.1-3.36-4.84-2.49-.38,1.62,1,2.74,4.84,3.35,5.47,4.22,0,.75-1.62-.12-1.49.74-1.12,2-1.12,1.37-.12,2.74.12.87,1.24,2.24,1.49,2.11,3.61,2.61a13.22,13.22,0,0,1,5.59,3c1.12,1.12,5.22-.62,5.22-.62Z"/><path class="cls-34" d="M560.59,168s4.46,1,5.32,5.2-3.09,7.55-1.11,10.77,4.58,2.6,5.32,7.92-7.92,14.35-14.23,5.32S560.59,168,560.59,168Z"/><path class="cls-14" d="M534.8,207s-8.32,2.22-10.55,7.21-1.66,42.75,10,58.3,33.31,17.76,38.3,15.54,33.87-16.65,36.09-23.87-8.88-12.77-15-15.55-10-6.66-13.32-16.65-5-27.2-8.89-30S558.12,194.77,534.8,207Z"/><path class="cls-35" d="M575.4,213.92s-2.85-16.52-4.68-18.41c-2.23-2.24-5.91-4-9.59-1.26a8.22,8.22,0,0,0-3.14,9.37c1,2.53,10.3,23.54,13.1,25.92s6.64,1.5,7.39-3S575.4,213.92,575.4,213.92Z"/><path class="cls-30" d="M569.38,227.5s3.15,4.9,8.25,3.33,12.17-25.32,13.94-26.89c0,0,.79-5.7-4.52-5.89,0,0-12.17,20-13.94,22.18S568.8,224.75,569.38,227.5Z"/><g class="cls-12"><polygon class="cls-36" points="583.88 299.83 578.66 296.8 559.12 300.03 564.34 303.06 583.88 299.83"/><polygon class="cls-37" points="564.34 303.06 559.12 300.03 555.44 302.15 560.66 305.18 564.34 303.06"/><polygon class="cls-38" points="541.34 324.39 536.12 321.36 536.13 323.57 541.34 326.6 541.34 324.39"/><polygon class="cls-39" points="560.66 305.18 555.44 302.15 536.12 321.36 541.34 324.39 560.66 305.18"/><polygon class="cls-40" points="560.66 305.18 541.34 324.39 541.34 326.6 560.67 310.01 564.35 307.88 583.89 302.04 583.88 299.83 564.34 303.06 560.66 305.18"/></g><g class="cls-12"><polygon class="cls-36" points="535.28 299.83 540.5 296.8 560.05 300.03 554.83 303.06 535.28 299.83"/><polygon class="cls-37" points="554.83 303.06 560.05 300.03 563.72 302.15 558.5 305.18 554.83 303.06"/><polygon class="cls-38" points="577.83 324.39 583.04 321.36 583.04 323.57 577.82 326.6 577.83 324.39"/><polygon class="cls-39" points="558.5 305.18 563.72 302.15 583.04 321.36 577.83 324.39 558.5 305.18"/><polygon class="cls-40" points="558.5 305.18 577.83 324.39 577.82 326.6 558.49 310.01 554.81 307.88 535.28 302.04 535.28 299.83 554.83 303.06 558.5 305.18"/></g><g class="cls-12"><polygon class="cls-36" points="535.28 299.83 540.5 296.8 560.05 300.03 554.83 303.06 535.28 299.83"/><polygon class="cls-37" points="554.83 303.06 560.05 300.03 563.72 302.15 558.5 305.18 554.83 303.06"/><polygon class="cls-38" points="577.83 324.39 583.04 321.36 583.04 323.57 577.82 326.6 577.83 324.39"/><polygon class="cls-39" points="558.5 305.18 563.72 302.15 583.04 321.36 577.83 324.39 558.5 305.18"/><polygon class="cls-40" points="558.5 305.18 577.83 324.39 577.82 326.6 558.49 310.01 554.81 307.88 535.28 302.04 535.28 299.83 554.83 303.06 558.5 305.18"/></g><g class="cls-12"><polygon class="cls-41" points="563.15 280.42 563.08 302.39 559.24 304.62 559.3 282.66 563.15 280.42"/><polygon class="cls-6" points="559.3 282.66 559.24 304.62 555.37 302.39 555.44 280.42 559.3 282.66"/><polygon class="cls-42" points="563.15 280.42 559.3 282.66 555.44 280.42 559.28 278.19 563.15 280.42"/></g><path class="cls-23" d="M616,326.09s4.91,5.41,9,7.22c4.08,3.84,7.79,6.64,7.3,9.61-1,3-10.23.66-14-1.48a29.38,29.38,0,0,1-6.93-5.94l.63,1.78a.54.54,0,0,1-.73.68,3.62,3.62,0,0,1-1.55-1.14c-.82-1.16-1.65-4.95-.82-6.77S616,326.09,616,326.09Z"/><path class="cls-30" d="M583,283.59a26,26,0,0,0,6.42,15.78c6.41,7.22,15.24,20.05,18.18,28.34,3,5.36,5.67,7.24,10.22,3.5,1.81-.83-1.65-8.42-7-18.74-5.25-10.1-13.91-31.82-16.31-34.22S583.83,272.9,583,283.59Z"/><path class="cls-30" d="M616.9,325.64a19.77,19.77,0,0,0,6.06,7.05c4.46,3.35-1.15,6.77-4.29,5.78s-8.74-5.12-9.24-6.93S610,321.06,616.9,325.64Z"/><path class="cls-23" d="M627.91,313.22s4.91,5.41,9,7.22c4.08,3.84,7.79,6.64,7.3,9.61-1,3-10.23.66-14-1.48a29.38,29.38,0,0,1-6.93-5.94l.63,1.78a.54.54,0,0,1-.73.68,3.68,3.68,0,0,1-1.55-1.14c-.82-1.16-1.65-4.95-.82-6.77S627.91,313.22,627.91,313.22Z"/><path class="cls-30" d="M594.91,270.72a26,26,0,0,0,6.42,15.78c6.41,7.22,15.24,20.05,18.18,28.34,3,5.35,5.67,7.24,10.22,3.5,1.81-.83-1.65-8.42-7-18.74-5.25-10.1-13.91-31.82-16.31-34.22S595.71,260,594.91,270.72Z"/><path class="cls-30" d="M628.78,312.77a19.77,19.77,0,0,0,6.06,7.05c4.46,3.34-1.15,6.77-4.29,5.78s-8.74-5.12-9.24-6.93S621.89,308.19,628.78,312.77Z"/><path class="cls-43" d="M547.47,248s-3,13.87,3.71,22.78,26.74,14.35,27.73,15.84,3.21,4,5.69,4,21.78-9.16,24.26-18.81c-.75-6.69-3-8.67-5.7-10.89s-20.29-10.4-21.28-11.89a14.58,14.58,0,0,1-1.49-4.45Z"/><path class="cls-35" d="M545.07,197.55s-9.8,4.7-11.68,8.22-1.88,12,5.41,19.75c4.46,6.35,7.05,23.74,9.56,28,3.13,4.08,18,5,26,1.89s7.94-10.89,6.27-13.52c-4.7-7.43-2.82-14.22-2.66-17.83s3-7.68,1.25-12.69-9.72-8.47-11-10-5-7.37-9.25-7.53S545.07,197.55,545.07,197.55Z"/><path class="cls-44" d="M580.64,241.86c-4.7-7.43-2.82-14.22-2.66-17.83.1-2.49,1.48-5.2,1.76-8.29-5.41,5-13.38,10.75-22.12,11-10.08.31-19-5.39-24.08-9.57a24.51,24.51,0,0,0,5.26,8.33c4.46,6.35,7.05,23.74,9.56,28,3.13,4.08,18,5,26,1.89S582.31,244.49,580.64,241.86Z"/><path class="cls-34" d="M578.89,238.41a20.77,20.77,0,0,1-1.08-9c-18.91,11.46-34.43,5.46-34.43,5.46v0a19.53,19.53,0,0,0,1.06,4.77s-.14.06-.13.1c.21.77.34,1.55.54,2.31,0,0,0,.08,0,.11.09.33.15.65.24,1l.3,1.19s0,.06,0,.09C563.79,248.06,575,241.33,578.89,238.41Z"/><g class="cls-12"><path class="cls-26" d="M591.66,182.75a1.44,1.44,0,0,1,1.15.06c-.85-.49-1.44-.77-2.37-.23l-1.12.64L583,186.89l-14.66,8.46a6.1,6.1,0,0,0-3.19,3.46c-.49,1.62-.18,3.66-.18,5.32l0,9.13c0,.93,0,1.86,0,2.78a2.26,2.26,0,0,0,1.38,2.27c-.82-.47-.69-1.61-.69-2.43,0-1.18,0-2.37,0-3.56,0-3.08,0-6.16,0-9.25,0-2.18-.22-4.28,1.45-6a16.56,16.56,0,0,1,3.79-2.38l12.62-7.29,5.51-3.18A14.86,14.86,0,0,1,591.66,182.75Z"/><path class="cls-10" d="M591.14,183c1.3-.75,2.35-.16,2.35,1.33l0,16.41a5.16,5.16,0,0,1-2.34,4.05L568,218.15c-1.3.75-2.35.15-2.35-1.34l0-16.41a5.11,5.11,0,0,1,2.34-4Z"/></g><path class="cls-35" d="M546.68,225.8s-2.84-16.52-4.67-18.41c-2.23-2.24-5.91-4-9.59-1.26a8.21,8.21,0,0,0-3.14,9.37c1,2.53,10.3,23.54,13.1,25.92s6.64,1.5,7.38-3S546.68,225.8,546.68,225.8Z"/><path class="cls-30" d="M540.67,239.38s3.14,4.91,8.25,3.33,12.17-25.32,13.94-26.89c0,0,.78-5.7-4.52-5.89,0,0-12.17,20-13.94,22.18S540.08,236.63,540.67,239.38Z"/><path class="cls-30" d="M558.11,210.75s.83-4.95,3-6.43,7.1-2.81,8.42-1.16.5,8.25-.82,8.91a44.35,44.35,0,0,1-4.46,1.65s-1.15,2.48-2.64,2.48S558.11,210.75,558.11,210.75Z"/><path class="cls-45" d="M588.14,195.2a2.28,2.28,0,0,0-1,1.8c0,.67.47.93,1,.6a2.3,2.3,0,0,0,1-1.81C589.19,195.13,588.72,194.86,588.14,195.2Z"/><path class="cls-27" d="M556,194.67a1.7,1.7,0,0,0,0,.45c.2,1,.84,3.6,1,4.69s-1,2.91-3.78,3-7.68-.86-9.44-4.15a78.43,78.43,0,0,0-1-9.92Z"/><path class="cls-30" d="M562.09,174.11c-2-8.56-9.13-13.13-16.78-10.94,0,0-8.35,1.26-11.72,8.81s2.42,13.48,6.12,17.22c1.56,1.53,2.73,2.71,3.48,3.47.27.28.53.57.81.83l.08.08h0a17.61,17.61,0,0,0,7.39,4c3.42.83,7.39.06,9.43-2.34S564.13,182.67,562.09,174.11Z"/><path class="cls-34" d="M560.42,166s3.8,1.16,1,6.94-7.42,4-7.59,8.74-.82,6.77-5,9.08.83,4.62.83,12.54-7.76,9.07-11.06,6.76-.49-4.62-4.78-8.91-9.08-6.27-5.78-12.21,3.47-5.61,3-13.53,3.14-12.87,10.23-15S555.64,158.44,560.42,166Z"/><g class="cls-12"><path class="cls-46" d="M683.58,379.55c-.56,6.22-6.41,10.45-11.7,12.72a44.84,44.84,0,0,1-18.31,3.4A43.46,43.46,0,0,1,635,391.54c-5-2.46-10.33-6.93-10.31-13,0,4.43.3,8.09,3.49,11.55,4.11,4.45,10.29,6.85,16.11,8.05,11.36,2.35,26.82,1.21,35.44-7.53,3.47-3.51,3.95-7.22,4-11.9C683.64,379,683.61,379.27,683.58,379.55Z"/><path class="cls-26" d="M674.94,366.52c11.55,6.67,11.63,17.49.15,24.16s-30.18,6.68-41.74,0-11.61-17.49-.12-24.16S663.38,359.84,674.94,366.52Z"/></g><g class="cls-12"><polygon class="cls-47" points="659.4 353.03 659.33 378.82 654.82 381.44 654.89 355.65 659.4 353.03"/><polygon class="cls-10" points="654.89 355.65 654.82 381.44 650.28 378.82 650.35 353.03 654.89 355.65"/><polygon class="cls-42" points="659.4 353.03 654.89 355.65 650.35 353.03 654.86 350.41 659.4 353.03"/></g><g class="cls-12"><path class="cls-46" d="M764.64,283.46c-.06,20.29-15.9,35.89-32.23,45.57-18.85,11.17-40.89,16.64-62.55,18.67a186.12,186.12,0,0,1-65.67-5.36,136.49,136.49,0,0,1-30.24-12A84.25,84.25,0,0,1,551,312.44c-7.17-8.23-12.13-18.55-12.1-29.62,0,5.12-.24,10.25.82,15.3a47.87,47.87,0,0,0,10.43,20.56c6.17,7.39,14,13.29,22.33,18.07a132.5,132.5,0,0,0,30,12.36,187.63,187.63,0,0,0,64.38,6.06c21.54-1.61,43.27-6.81,62.34-17.15,16.37-8.87,33-23.5,35.13-43.14A111.5,111.5,0,0,0,764.64,283.46Z"/><path class="cls-26" d="M731.32,236.91c44.22,25.53,44.45,66.92.52,92.45s-115.39,25.54-159.61,0-44.45-66.92-.52-92.45S687.1,211.38,731.32,236.91Z"/></g><path class="cls-48" d="M712.81,273.17s-1.61-1.86-3.09-3.84-3-3.46-4.71-2.85a1.82,1.82,0,0,0-1.36,2.11s-.24,1.36-.49,3.09.12,4.46,2.72,5.45a18.13,18.13,0,0,0,5,1.11Z"/><path class="cls-31" d="M709.47,279.23s-2.72-1.61-2.1-4.08,1.36-4,1.48-5.08-.62-4.45.62-5.07,1.36.49,1.48,1.61a17.13,17.13,0,0,0,1.61,5.2c.75,1.11,1.74,2.72,1.74,2.72S712.07,279,709.47,279.23Z"/><path class="cls-49" d="M738.21,300.8s-5,3.35-10.49-1.43S710.3,280.54,709,279.29a7.1,7.1,0,0,1,4.48-6.2s8.87,7.41,13.47,10.54S746.69,295.13,738.21,300.8Z"/><path class="cls-47" d="M709.33,277.41a7.07,7.07,0,0,0-.38,1.88c1.35,1.25,13.27,15.31,18.77,20.08,3.55,3.08,6.87,2.78,8.79,2.18C726.56,296.47,714.18,282.94,709.33,277.41Z"/><path class="cls-49" d="M748.8,290.84s19-5.31,21.9-4.33c3.5,1.24,7.2,4.27,6.17,9.55a9.67,9.67,0,0,1-8.37,8.06c-3.16.26-30.17.93-34.1-.85s-4.95-6.28-.52-9.36S748.8,290.84,748.8,290.84Z"/><path class="cls-47" d="M776.87,296.06c0-.25.08-.49.11-.73a13,13,0,0,1-10.39,5.2c-10.1.38-25.05.37-28.25-.23a33.87,33.87,0,0,1-7.2-2.81c-.61,2.32.7,4.63,3.26,5.78,3.93,1.78,30.94,1.11,34.1.85A9.67,9.67,0,0,0,776.87,296.06Z"/><path class="cls-50" d="M686.21,413.55s-2.47,1.7-.16,5.71,4.32,1.54,9.56,5.55,7.09,4.77,9.86,4.46,4.47-1.69,4.93-3.23-.92-4.16-.92-4.16Z"/><path class="cls-23" d="M708.4,413.71s1.08,5.24,1.69,9.25c.16,1.85-2.31,4.36-5.85,4.21s-5.55-1.23-6.78-2.78-8.94-4.52-10.33-5.75-1.7-4.93-1.08-5.86a4.67,4.67,0,0,1,5.4-1.38c2.46,1.08,4.46,3.08,9.4,3.39S708.4,413.71,708.4,413.71Z"/><path class="cls-50" d="M710.66,400.2s-2.47,1.69-.16,5.7,4.32,1.54,9.56,5.55,7.09,4.78,9.86,4.47,4.47-1.7,4.93-3.24-.92-4.16-.92-4.16Z"/><path class="cls-23" d="M732.85,400.35s1.08,5.24,1.7,9.25c.15,1.85-2.32,4.37-5.86,4.21s-5.55-1.23-6.78-2.77-8.94-4.52-10.33-5.76-1.69-4.93-1.08-5.85a4.65,4.65,0,0,1,5.4-1.39c2.46,1.08,4.47,3.08,9.4,3.39S732.85,400.35,732.85,400.35Z"/><path class="cls-51" d="M713.69,357.71c1.23,9.87,6.16,35.76,7,44.8,0,0,2.05,3.29,8.22,2.47l2.92-1.22a2.84,2.84,0,0,0,1.73-3c-.62-5-2-17.54-1.37-25,.82-9.46-1.64-15.21-1.64-15.21.2-3.08.62-13.77-5.55-16.64,0,0-15.1-2.78-11.3,13.76"/><path class="cls-52" d="M726.22,348.47l-1.64,3.28s-25.27,1.24-32.06,8.64c0,0-4.52.82-3.28,10.68s6.16,35.76,7,44.8c0,0,2.06,3.28,8.22,2.46l2.93-1.22a2.84,2.84,0,0,0,1.73-3c-.62-5-2-17.54-1.37-25,.82-9.45-1.64-15.2-1.64-15.2a129,129,0,0,1,23,7c11.92,4.94,22.19-.82,26.71-3.28a29.88,29.88,0,0,0,6.17-4.11A18.78,18.78,0,0,0,773.07,369c5.35-4.52,6.17-16.44.42-23.43S726.22,348.47,726.22,348.47Z"/><path class="cls-48" d="M739.13,295.93s4.08-1.52,3.81-7c-1.24-5.38-2.73-5.74-2.73-5.74s5.71-5.28,12.6-3.61c0,0,4.26,8.63,9.07,12.33C761.88,291.94,758,302.09,739.13,295.93Z"/><path class="cls-5" d="M752.69,290.58s-16,5.35-20.55,12.74-3.7,15.62-.41,27.13-3.29,21.78-1.64,27.94,13.15,11.92,30,9,18.08-9.45,19.31-13.15-3.28-21.37.82-35.75-4.1-24.25-7.39-26.71S763,286.06,752.69,290.58Z"/><path class="cls-53" d="M772.83,291.82c-3.29-2.47-9.87-5.76-20.14-1.24,0,0-16,5.35-20.55,12.74a21.11,21.11,0,0,0-2.38,5.56c6.49-8.43,15.7-12.14,21.7,2.25,5.59,13.43-8.64,52.9-21.08,40.49-.52,2.59-.8,4.88-.29,6.77,1.64,6.17,13.15,11.92,30,9s18.08-9.45,19.31-13.15-3.28-21.37.82-35.75S776.12,294.28,772.83,291.82Z"/><path class="cls-49" d="M737.38,297.57s4.32,2.77,15.1,1.23,11.41-9.24,10.48-9.86a20.48,20.48,0,0,1-2.77-3.08s-11.4,5.24-15.41,6.78-6.17,2.46-6.17,2.46Z"/><g class="cls-12"><polygon class="cls-36" points="771.99 420.62 766.77 417.59 747.23 420.81 752.45 423.85 771.99 420.62"/><polygon class="cls-37" points="752.45 423.85 747.23 420.81 743.55 422.94 748.77 425.97 752.45 423.85"/><polygon class="cls-38" points="729.45 445.18 724.23 442.15 724.24 444.36 729.46 447.39 729.45 445.18"/><polygon class="cls-39" points="748.77 425.97 743.55 422.94 724.23 442.15 729.45 445.18 748.77 425.97"/><polygon class="cls-40" points="748.77 425.97 729.45 445.18 729.46 447.39 748.78 430.79 752.46 428.67 772 422.83 771.99 420.62 752.45 423.85 748.77 425.97"/></g><g class="cls-12"><polygon class="cls-36" points="723.39 420.62 728.61 417.59 748.16 420.81 742.94 423.85 723.39 420.62"/><polygon class="cls-37" points="742.94 423.85 748.16 420.81 751.83 422.94 746.62 425.97 742.94 423.85"/><polygon class="cls-38" points="765.94 445.18 771.15 442.15 771.15 444.36 765.93 447.39 765.94 445.18"/><polygon class="cls-39" points="746.62 425.97 751.83 422.94 771.15 442.15 765.94 445.18 746.62 425.97"/><polygon class="cls-40" points="746.62 425.97 765.94 445.18 765.93 447.39 746.6 430.79 742.92 428.67 723.39 422.83 723.39 420.62 742.94 423.85 746.62 425.97"/></g><g class="cls-12"><polygon class="cls-36" points="723.39 420.62 728.61 417.59 748.16 420.81 742.94 423.85 723.39 420.62"/><polygon class="cls-37" points="742.94 423.85 748.16 420.81 751.83 422.94 746.62 425.97 742.94 423.85"/><polygon class="cls-38" points="765.94 445.18 771.15 442.15 771.15 444.36 765.93 447.39 765.94 445.18"/><polygon class="cls-39" points="746.62 425.97 751.83 422.94 771.15 442.15 765.94 445.18 746.62 425.97"/><polygon class="cls-40" points="746.62 425.97 765.94 445.18 765.93 447.39 746.6 430.79 742.92 428.67 723.39 422.83 723.39 420.62 742.94 423.85 746.62 425.97"/></g><g class="cls-12"><polygon class="cls-41" points="751.26 401.21 751.2 423.18 747.35 425.41 747.41 403.44 751.26 401.21"/><polygon class="cls-6" points="747.41 403.44 747.35 425.41 743.48 423.18 743.55 401.21 747.41 403.44"/><polygon class="cls-42" points="751.26 401.21 747.41 403.44 743.55 401.21 747.39 398.98 751.26 401.21"/></g><path class="cls-14" d="M801.5,315.44a5.29,5.29,0,0,0-7-4.82c-14.74,5.17-48.53,17.42-50.7,21.76-2.07,4.14-8.76,27.25-12,38.83a5.31,5.31,0,0,1-7.8,3.11l-20.42-12.05a5.31,5.31,0,0,0-7.94,5.45l3.28,19.67a5.3,5.3,0,0,0,2.6,3.73l21.85,12.56A42.05,42.05,0,0,0,763,404.83l16.84-8.43A42,42,0,0,0,803,357.28Z"/><path class="cls-49" d="M717.07,314.85s16.12-11.3,19.22-11.34c3.71,0,8.21,1.63,9,7a9.68,9.68,0,0,1-5.22,10.38c-2.89,1.3-28.16,10.88-32.45,10.51s-6.75-4.29-3.59-8.66S717.07,314.85,717.07,314.85Z"/><path class="cls-47" d="M745.28,310.47c0-.25-.09-.49-.14-.73a12.94,12.94,0,0,1-8.07,8.35c-9.41,3.71-23.52,8.66-26.73,9.16a34.31,34.31,0,0,1-7.73-.26c.2,2.39,2.2,4.13,5,4.37,4.29.37,29.56-9.21,32.45-10.51A9.68,9.68,0,0,0,745.28,310.47Z"/><path class="cls-31" d="M673.83,320.57a25.52,25.52,0,0,1-5.45-1.61c-1.48-.87-3.46-3-4.21-3s-3,.74-3.46.49,0-1.11.37-1.24,3-.37,2.6-.49-3.09.62-3.34,0,2.72-4,5.81-4.7,3.59.49,5.08,1.11a39.93,39.93,0,0,1,5.07,3.34S676.06,319.58,673.83,320.57Z"/><path class="cls-49" d="M712.21,327s-3.14,5.79-10.92,3.94-26.51-9.47-28.46-10a7.78,7.78,0,0,1,1.22-8.29s12.39,2.7,18.45,3.41S717.58,317.14,712.21,327Z"/><path class="cls-47" d="M672.25,318.87a7.77,7.77,0,0,0,.58,2c1.95.54,20.68,8.16,28.46,10,5,1.19,8.09-.79,9.65-2.35C698.68,328.65,679.77,321.78,672.25,318.87Z"/><path class="cls-31" d="M734.34,256.79a9.86,9.86,0,0,0-3.79,6.27c-.5,4,2.14,6.11,1,8.58a10.83,10.83,0,0,0-1,7.43c.66,2.31,1.65,7.92,3.13,9.4s7.43,0,12.05-1.32a17.16,17.16,0,0,0,10.4-8.58c1.65-3.63,4-10.06,2.64-15.51S751.84,253.32,748,253A18.27,18.27,0,0,0,734.34,256.79Z"/><path class="cls-54" d="M731.87,257.78s-3.63,3-1.82,7.26c1.16,1.32,4.46,3,5.61,5.28s-1.81,5.28.5,7.76,4.46,3.46,5.12,6.6,5,2.64,10.56,1c2.14-1,3.63-4.79,3.63-4.79s3.79-7.09,4.45-11.55-.49-6.43-1.81-6.43-6.93,4.45-11.39,3S734.51,257.12,731.87,257.78Z"/><path class="cls-55" d="M731.87,257.78a9.24,9.24,0,0,1,4.45-6.77c4.3-2.8,14.36-1,17,.33,2,1.32.17,1.65.17,1.65a17.35,17.35,0,0,1,5.44,3.8c2,2.31,2.64,7.92,1.32,10.73s-8.58,4.45-12.54,3.63S731.37,264.71,731.87,257.78Z"/><path class="cls-31" d="M736.8,276.3s.71-2.74,2.3-1.24.71,5.22-.35,5.58S736.18,279,736.8,276.3Z"/><path class="cls-56" d="M710.39,235.41a10,10,0,0,0-4.55,7.89l0,9.17c0,2.9,2.07,4.07,4.59,2.61l35.21-20.54,2.05,3.51,2-5.87,12.47-7a10,10,0,0,0,4.55-7.89l0-9.17c0-2.9-2.06-4.08-4.58-2.62Z"/><polygon class="cls-49" points="638.65 287.51 677.51 310.09 704.84 294.31 665.99 271.74 638.65 287.51"/><path class="cls-26" d="M671.68,281.89l-6.12,3.56-7.74-2.28c2.16-2.48,7.38-3.46,11.66-2.2A9.76,9.76,0,0,1,671.68,281.89Z"/><path class="cls-57" d="M673.08,282.36c4.11,2.37,4.13,6.21,0,8.59a16.35,16.35,0,0,1-14.83,0c-3.29-1.9-4.06-4.66-2-7.06l9.36,2.76Z"/><path class="cls-58" d="M719,294.19a.83.83,0,0,1,0,1.57l-22.19,12.88a3,3,0,0,1-2.72,0l-15.48-8.94a.83.83,0,0,1,0-1.57l22.18-12.88a3,3,0,0,1,2.72,0Z"/><path class="cls-10" d="M719.55,295a.13.13,0,0,1,0,.06.11.11,0,0,1,0,0,.08.08,0,0,1,0,.05.43.43,0,0,1,0,.05l0,.06,0,0a.43.43,0,0,1,0,.07l0,0-.08.09,0,0-.06.05-.05,0-.07.05-.07,0-22.19,12.88a2.1,2.1,0,0,1-.26.13l-.08,0-.18.05-.19,0-.24,0h-.05l-.33,0h-.05l-.32,0h-.05l-.31-.06h0l-.27-.08,0,0a1.55,1.55,0,0,1-.29-.14l-15.48-8.94a1,1,0,0,1-.53-.58.52.52,0,0,1,0-.21v.89s0,.07,0,.11a1,1,0,0,0,.56.68l15.49,8.94.27.14h0l0,0,.17.05.09,0h.11l.19,0h.57l.22,0h.08l.16,0,.07,0,.19-.05.11,0,.08,0,.07,0a2.24,2.24,0,0,0,.27-.13L719,296.65h0l0,0,.07-.05.06,0,.06,0h0l0,0,.08-.09,0,0v0l.05-.07s0,0,0,0h0l0-.06,0,0v0s0,0,0,0,0,0,0,0h0a.13.13,0,0,1,0-.06V295S719.55,295,719.55,295Z"/><path class="cls-59" d="M716.7,294.47c.24.14.24.36,0,.51l-21.05,12.23a1,1,0,0,1-.88,0l-13.94-8c-.25-.14-.25-.37,0-.51l21.06-12.23a1,1,0,0,1,.87,0Z"/><g class="cls-12"><polygon class="cls-13" points="629.01 251.41 611.57 241.27 611.6 251.9 629.04 262.04 629.01 251.41"/><polygon class="cls-14" points="645.87 241.68 628.43 231.54 611.57 241.27 629.01 251.41 645.87 241.68"/><polygon class="cls-15" points="629.01 251.41 629.04 262.04 645.9 252.3 645.87 241.68 629.01 251.41"/></g><g class="cls-12"><polygon class="cls-16" points="608.32 252.58 590.87 242.45 590.93 263.83 608.38 273.97 608.32 252.58"/><polygon class="cls-5" points="625.18 242.85 607.73 232.71 590.87 242.45 608.32 252.58 625.18 242.85"/><polygon class="cls-17" points="608.32 252.58 608.38 273.97 625.24 264.23 625.18 242.85 608.32 252.58"/></g><g class="cls-12"><polygon class="cls-18" points="587.68 252.1 570.24 241.96 570.33 275.72 587.78 285.86 587.68 252.1"/><polygon class="cls-56" points="604.54 242.37 587.1 232.23 570.24 241.96 587.68 252.1 604.54 242.37"/><polygon class="cls-19" points="587.68 252.1 587.78 285.86 604.64 276.13 604.54 242.37 587.68 252.1"/></g><g class="cls-12"><path class="cls-57" d="M637.86,297.73s0,0,0,0a2.91,2.91,0,0,1-.18.35l0,.06a2.86,2.86,0,0,1-.29.33c-.08.07-.18.13-.27.2l-.23.16L602,319.09a4.5,4.5,0,0,1-.74.33l-.29.09-.37.09-.45.08s-.08-.52-.12-.52c-.2,0-.41-.49-.63-.49h-.1c-.2,0-.41.52-.62.49,0,0-.06.26-.09.26-.21,0-.41.07-.6,0,0,0-.08.05-.11,0s-.35-.07-.52-.13h-.09a5.1,5.1,0,0,1-.58-.26L574.3,306.14a1.83,1.83,0,0,1-1.1-1.54l0,4a1.86,1.86,0,0,0,1.11,1.54l22.42,12.95a4,4,0,0,0,.55.26h0s-.61,0-.58,0-.33.08-.33.11h0c1,0,.79,0,.85,0l.44,0,.27,0a3.47,3.47,0,0,0,.45.06l.18,0H599l.43,0h0s-.3-.08-.17-.08h.21c.06,0,.11.05.17,0a2.8,2.8,0,0,0,.41,0h.16l.32,0,.14,0a2.22,2.22,0,0,0,.37-.09l.2-.05.09,0a4.46,4.46,0,0,0,.74-.32l34.8-20.22,0,0a1.24,1.24,0,0,0,.18-.14,1.46,1.46,0,0,0,.27-.2h0a1.79,1.79,0,0,0,.23-.26l0,0,0-.07a.61.61,0,0,0,.07-.1,1,1,0,0,0,.1-.21.08.08,0,0,0,0,0s0,0,0,0-.24-.09-.23-.14-.24-.14-.24-.21v0l.28-4C637.66,297.47,637.9,297.6,637.86,297.73Z"/><path class="cls-49" d="M636.82,295.79c1.47.86,1.47,2.23,0,3.08L602,319.09a5.85,5.85,0,0,1-5.31,0L574.3,306.15c-1.46-.85-1.48-2.22,0-3.07l34.79-20.23a5.85,5.85,0,0,1,5.31,0Z"/></g><polygon class="cls-19" points="607.2 293.4 607.18 297.73 604.77 299.83 602.62 299.83 602.62 295.03 607.2 293.4"/><polygon class="cls-60" points="607.18 297.29 607.16 303.41 603.08 305.79 603.1 299.5 607.18 297.29"/><path class="cls-18" d="M602.19,295.32c-.26-.1-.55-.2-.82-.28s-.44-.12-.67-.16-.43-.09-.65-.12l-.62-.07-.64,0c-.22,0-.45,0-.67,0l-.71,0c-.28,0-.56.07-.83.12a8.49,8.49,0,0,0-1.23.3,7.92,7.92,0,0,0-1.42.62l-.07.05a5,5,0,0,0-.83.61,4,4,0,0,0-.4.43,4.4,4.4,0,0,0-.26.39,2.48,2.48,0,0,0-.17.37,1.61,1.61,0,0,0-.1.36,2.35,2.35,0,0,0-.05.37v.06l0,6.44v-.06a2.35,2.35,0,0,1,.05-.37,2.42,2.42,0,0,1,.1-.36c.05-.13.11-.25.17-.37s.17-.26.26-.39a4.12,4.12,0,0,1,.41-.43,4.48,4.48,0,0,1,.82-.61l.08-.05a7.61,7.61,0,0,1,1.42-.62,9.47,9.47,0,0,1,1.22-.31l.83-.11.72,0q.33,0,.66,0l.64,0,.63.07c.21,0,.43.07.64.12s.45.1.67.16a8.12,8.12,0,0,1,.79.27,7.53,7.53,0,0,1,1,.45l0-6.43A6.67,6.67,0,0,0,602.19,295.32Z"/><g class="cls-12"><path class="cls-1" d="M605,302l0,2.85c0-1-.64,1.65-1.91.92v-6.28C604.37,300.24,605,301.05,605,302Z"/><g class="cls-61"><path class="cls-16" d="M605,302l0,2.85c0-1-.64,1.65-1.91.92v-6.44A3.24,3.24,0,0,1,605,302"/></g></g><path class="cls-2" d="M610.8,302l0,2.85c0,1.81-1.19,3.61-3.56,5V307C609.61,305.65,610.79,303.84,610.8,302Z"/><path class="cls-17" d="M610.8,302.14a5.71,5.71,0,0,1-.08.71,4.48,4.48,0,0,1-.2.69,4.83,4.83,0,0,1-.33.69,5.57,5.57,0,0,1-.49.74,8.21,8.21,0,0,1-.76.82,9.86,9.86,0,0,1-1.56,1.15l-.15.09v2.84l.15-.09a9,9,0,0,0,1.55-1.15,6.36,6.36,0,0,0,.76-.81,5.57,5.57,0,0,0,.49-.74,4.94,4.94,0,0,0,.33-.7,3.92,3.92,0,0,0,.2-.69,4.06,4.06,0,0,0,.08-.7v-.11l0-2.85Z"/><path class="cls-5" d="M607.18,297.29c4.8,2.78,4.82,7,.05,9.74l-4.11-2.38c2.53-1.46,2.51-3.68,0-5.14Z"/><polygon class="cls-62" points="607.23 305.61 607.22 309.87 603.11 307.5 603.13 306.83 607.23 305.61"/><g class="cls-12"><g class="cls-63"><path class="cls-15" d="M604.49,306.81a16.73,16.73,0,0,1-2.27.56c-.52.1-1,.17-1.57.22s-.9.08-1.35.09h-.73l0,4.26h.73q.68,0,1.35-.09c.53-.05,1.06-.12,1.57-.22a16.73,16.73,0,0,0,2.27-.56,13.38,13.38,0,0,0,2.75-1.2v-4.26A13.06,13.06,0,0,1,604.49,306.81Z"/></g></g><polygon class="cls-64" points="598.57 307.69 598.55 311.95 598.53 308.6 598.55 304.15 598.57 307.69"/><path class="cls-14" d="M607.23,305.61a17.56,17.56,0,0,1-8.66,2.08l0-3.35a9.31,9.31,0,0,0,4.57-1.1Z"/><g class="cls-12"><g class="cls-65"><path class="cls-18" d="M598,305.32c-.41,0-.81,0-1.21-.06s-.8-.08-1.19-.14-.81-.13-1.21-.21-.87-.19-1.29-.31-1-.31-1.48-.5a14.58,14.58,0,0,1-1.78-.85c-2.42-1.4-3.63-3.23-3.62-5.07l0,6.44c0,1.83,1.2,3.86,3.62,5.25a12.85,12.85,0,0,0,1.79.86c.47.18,1,.35,1.47.5s.85.22,1.29.31.8.15,1.21.21.79.1,1.19.13.8.06,1.21.07h.53l0-6.62Z"/></g></g><path class="cls-56" d="M607.2,293.4l-4.08,2.37a10.16,10.16,0,0,0-9.19,0c-2.52,1.47-2.5,3.85,0,5.31a9.41,9.41,0,0,0,4.59,1.1l0,3.36a17.76,17.76,0,0,1-8.69-2.09c-4.81-2.77-4.83-7.27-.06-10.05S602.4,290.62,607.2,293.4Z"/><path class="cls-66" d="M629.7,297.93a.37.37,0,0,1,0,.7,1.32,1.32,0,0,1-1.22,0l-17.34-10c-.34-.2-.35-.51,0-.71a1.38,1.38,0,0,1,1.22,0Z"/><path class="cls-66" d="M617.71,293.32c.34.2.34.52,0,.71a1.34,1.34,0,0,1-1.23,0l-7.36-4.25c-.34-.19-.33-.51,0-.71a1.38,1.38,0,0,1,1.22,0Z"/><path class="cls-66" d="M620,296.81c.34.2.34.52,0,.71a1.34,1.34,0,0,1-1.23,0l-11.52-6.65a.37.37,0,0,1,0-.71,1.38,1.38,0,0,1,1.22,0Z"/><g class="cls-12"><g class="cls-67"><g class="cls-12"><path class="cls-6" d="M685.63,248.43v1.07a1.84,1.84,0,0,1-.18-.77v-1.07a1.84,1.84,0,0,0,.18.77"/></g></g></g><path class="cls-41" d="M669.31,247.72a.77.77,0,0,1,0,.15s0,.08,0,.11l0,.17a.47.47,0,0,1-.05.1,1.42,1.42,0,0,1-.08.18,1.18,1.18,0,0,1-.11.19v1.08a1,1,0,0,0,.08-.14l0-.05a1.42,1.42,0,0,0,.08-.18.21.21,0,0,0,0-.07s0,0,0,0,0-.11,0-.16l0-.09v0s0-.11,0-.16,0-.06,0-.09v-1.11S669.31,247.67,669.31,247.72Z"/><path class="cls-17" d="M695,248.82a.77.77,0,0,1,0,.15.36.36,0,0,1,0,.1.65.65,0,0,1,0,.13l0,.1a.61.61,0,0,1-.05.12l-.06.09a.57.57,0,0,1-.08.13l-.07.09-.17.18,0,0-.1.08-.12.1-.11.08-.16.1-.4.2-.14.05a2.65,2.65,0,0,1-.3.11l-.09,0-.35.08-.13,0-.28.05-.26,0a3,3,0,0,1-.31,0h-.7a4.41,4.41,0,0,1-.52,0l-.17,0-.43,0v1.07l.12,0,.3,0h.2l.48,0H691c.12,0,.24,0,.36,0h.06l.19,0h.31l.26,0,.18,0,.1,0,.13,0,.34-.09.1,0h0l.26-.09.14-.06.4-.2,0,0,.12-.08.11-.08.12-.09.1-.08h0l0,0,.17-.18,0,0,0-.05.09-.13,0-.05a.08.08,0,0,0,0,0,.67.67,0,0,0,.06-.12l0-.06s0,0,0,0a.5.5,0,0,0,0-.13.14.14,0,0,1,0-.06v0s0-.1,0-.15a.17.17,0,0,1,0-.07v-1.11S695,248.78,695,248.82Z"/><path class="cls-17" d="M665,250.73l-.36.05-.32,0-.23,0h-.56a4.58,4.58,0,0,1-.53,0H663l-.45-.06-.13,0a4.15,4.15,0,0,1-.48-.11h0l-.49-.17-.06,0-.42-.21a1.9,1.9,0,0,1-1.11-1.63v1.08a1.91,1.91,0,0,0,1.1,1.62,3.42,3.42,0,0,0,.43.21l.06,0,0,0,.45.15h0l.37.09.1,0,.14,0,.15,0,.3,0h.1l.43,0h1l.17,0,.36,0,.15,0,.31-.06v-1.08Z"/><polygon class="cls-17" points="698 255.56 697.99 256.64 689.86 261.37 689.86 260.29 698 255.56"/><polygon class="cls-17" points="665.45 260.42 665.44 261.49 657.03 256.64 657.04 255.56 665.45 260.42"/><path class="cls-17" d="M695,262.65a.34.34,0,0,1,0,.1,1.8,1.8,0,0,1,0,.19l0,.1a.54.54,0,0,0-.05.11l-.09.19a1.84,1.84,0,0,1-.17.25l0,.05-.22.26,0,0-.24.23,0,0a2.37,2.37,0,0,1-.3.23l0,0c-.12.08-.24.16-.37.23l-.36.2-.12.05-.26.12-.14.06-.26.1-.14,0-.2.06-.31.09-.19,0-.33.07-.17,0-.59.08h-.15l-.35,0h-.89l-.23,0-.18,0-.23,0-.18,0-.2-.05-.21,0-.15-.05-.27-.09-.2-.08-.09,0-.3-.15a1.9,1.9,0,0,1-1.11-1.63v1.08a1.91,1.91,0,0,0,1.1,1.62l.3.16.1,0,.12.05.08,0,.27.09.1,0h0l.21.05.14,0h.06l.18,0,.15,0h.07l.19,0h1.12l.34,0h.16l.59-.08h0l.12,0,.33-.07.18-.05.32-.09.12,0,.07,0,.15-.05.26-.1.14-.06.26-.11L693,266l.36-.19.08,0,.29-.19,0,0a2.37,2.37,0,0,0,.3-.23l0,0,.1-.08.14-.15,0,0a1.68,1.68,0,0,0,.18-.21l0-.05,0,0a2.13,2.13,0,0,0,.16-.25h0a1.42,1.42,0,0,0,.08-.18.54.54,0,0,0,.05-.11h0a.38.38,0,0,1,0-.1,1.21,1.21,0,0,1,0-.18h0a.38.38,0,0,1,0-.1.88.88,0,0,0,0-.16v-1.11A1.5,1.5,0,0,1,695,262.65Z"/><path class="cls-17" d="M673,258.22a4.13,4.13,0,0,0-.42-.22l-.14-.07-.29-.12-.05,0-.27-.1-.07,0-.38-.12h0l-.53-.13h0l-.13,0-.33-.06-.08,0h-.13l-.27,0h-1.13l-.27,0h-.19l-.36.06h-.12l-.13,0-.25.06-.15,0-.16.05h0l-.26.1-.13.05-.36.19,0,0-.12.08L666,258l-.12.1a.73.73,0,0,0-.09.08h0l0,0a1.37,1.37,0,0,0-.17.17l0,0,0,0-.09.13,0,0,0,.05-.06.12,0,.06a.06.06,0,0,1,0,0l0,.13a.14.14,0,0,0,0,.07s0,0,0,0a.76.76,0,0,0,0,.15.2.2,0,0,0,0,.07v1.11s0-.07,0-.1,0-.11,0-.16,0-.06,0-.1l0-.12a.3.3,0,0,1,0-.1.75.75,0,0,1,.06-.13.41.41,0,0,1,0-.09,1,1,0,0,1,.09-.13l.06-.08.17-.18,0-.05.1-.07a.58.58,0,0,1,.12-.1l.11-.08.16-.1a2,2,0,0,1,.36-.18l.12-.05.27-.1.21-.07.14,0,.26-.05.13,0,.11,0,.37-.05.19,0,.26,0h.67l.25,0h.22l.27,0,.2,0,.34.06.16,0,.54.13.4.13.07,0,.31.12.3.13.14.06.42.22a2.91,2.91,0,0,1,1.73,2.29V260.5A2.87,2.87,0,0,0,673,258.22Z"/><polygon class="cls-17" points="685.72 262.7 685.72 263.77 677.58 268.5 677.58 267.43 685.72 262.7"/><path class="cls-5" d="M693.24,246.42c2,1.18,2.33,2.92.65,3.89a6.51,6.51,0,0,1-4.08.53l8.18,4.72-8.13,4.73a6.5,6.5,0,0,1,4.09.53c1.69,1,1.42,2.71-.6,3.88s-5,1.34-6.7.37a1.75,1.75,0,0,1-.93-2.37l-8.14,4.73-8.4-4.86a6.64,6.64,0,0,0,4.42-.47c1.67-1,1.38-2.71-.65-3.88s-5-1.34-6.71-.36a1.74,1.74,0,0,0-.8,2.56l-8.4-4.86,8.47-4.92a6.75,6.75,0,0,1-4.6-.43c-1.69-1-1.42-2.71.6-3.89s5-1.33,6.71-.36a1.76,1.76,0,0,1,.76,2.66l8.47-4.92,8.18,4.73a1.74,1.74,0,0,1,.91-2.37C688.21,245.09,691.21,245.25,693.24,246.42Z"/><polygon class="cls-17" points="677.58 267.43 677.58 268.5 669.17 263.65 669.18 262.57 677.58 267.43"/></svg>